<?xml version="1.0" encoding="UTF-8" standalone="no"?>
<svg
   xmlns:dc="http://purl.org/dc/elements/1.1/"
   xmlns:cc="http://creativecommons.org/ns#"
   xmlns:rdf="http://www.w3.org/1999/02/22-rdf-syntax-ns#"
   xmlns:svg="http://www.w3.org/2000/svg"
   xmlns="http://www.w3.org/2000/svg"
   xmlns:sodipodi="http://sodipodi.sourceforge.net/DTD/sodipodi-0.dtd"
   xmlns:inkscape="http://www.inkscape.org/namespaces/inkscape"
   xml:space="preserve"
   width="275.79999mm"
   height="183.8mm"
   version="1.1"
   style="clip-rule:evenodd;fill-rule:evenodd;image-rendering:optimizeQuality;shape-rendering:geometricPrecision;text-rendering:geometricPrecision"
   viewBox="0 0 27579.999 18380"
   id="svg11"
   sodipodi:docname="box_bottom.svg"
   inkscape:version="0.92.1 r15371"><metadata
     id="metadata15"><rdf:RDF><cc:Work
         rdf:about=""><dc:format>image/svg+xml</dc:format><dc:type
           rdf:resource="http://purl.org/dc/dcmitype/StillImage" /><dc:title></dc:title></cc:Work></rdf:RDF></metadata><sodipodi:namedview
     pagecolor="#ffffff"
     bordercolor="#666666"
     borderopacity="1"
     objecttolerance="10"
     gridtolerance="10"
     guidetolerance="10"
     inkscape:pageopacity="0"
     inkscape:pageshadow="2"
     inkscape:window-width="1280"
     inkscape:window-height="962"
     id="namedview13"
     showgrid="false"
     inkscape:zoom="0.42506546"
     inkscape:cx="366.68546"
     inkscape:cy="234.14939"
     inkscape:window-x="-8"
     inkscape:window-y="48"
     inkscape:window-maximized="1"
     inkscape:current-layer="svg11" /><defs
     id="defs4"><style
       type="text/css"
       id="style2"><![CDATA[
    .str0 {stroke:#303030;stroke-width:0.01}
    .fil0 {fill:none}
   ]]></style></defs><g
     id="Слой_x0020_1"
     style="stroke-width:20;stroke-miterlimit:4;stroke-dasharray:none"
     transform="translate(-22031,-373.99986)"><g
       id="_924506736"
       style="stroke-width:20;stroke-miterlimit:4;stroke-dasharray:none"><polygon
         class="fil0 str0"
         points="23121,374 24321,374 24321,432 24341,490 24341,548 24321,606 24321,664 27154,664 27154,606 27134,548 27134,490 27154,432 27154,374 28354,374 28354,432 28374,490 28374,548 28354,606 28354,664 31187,664 31187,606 31167,548 31167,490 31187,432 31187,374 32387,374 32387,432 32407,490 32407,548 32387,606 32387,664 35221,664 35221,606 35201,548 35201,490 35221,432 35221,374 36421,374 36421,432 36441,490 36441,548 36421,606 36421,664 39254,664 39254,606 39234,548 39234,490 39254,432 39254,374 40454,374 40454,432 40474,490 40474,548 40454,606 40454,664 43287,664 43287,606 43267,548 43267,490 43287,432 43287,374 44487,374 44487,432 44507,490 44507,548 44487,606 44487,664 47321,664 47321,606 47301,548 47301,490 47321,432 47321,374 48521,374 48521,432 48541,490 48541,548 48521,606 48521,664 49321,664 49321,1464 49379,1464 49437,1444 49495,1444 49553,1464 49611,1464 49611,2664 49553,2664 49495,2684 49437,2684 49379,2664 49321,2664 49321,6464 49379,6464 49437,6444 49495,6444 49553,6464 49611,6464 49611,7664 49553,7664 49495,7684 49437,7684 49379,7664 49321,7664 49321,11464 49379,11464 49437,11444 49495,11444 49553,11464 49611,11464 49611,12664 49553,12664 49495,12684 49437,12684 49379,12664 49321,12664 49321,16464 49379,16464 49437,16444 49495,16444 49553,16464 49611,16464 49611,17664 49553,17664 49495,17684 49437,17684 49379,17664 49321,17664 49321,18464 48521,18464 48521,18522 48541,18580 48541,18638 48521,18696 48521,18754 47321,18754 47321,18696 47301,18638 47301,18580 47321,18522 47321,18464 44487,18464 44487,18522 44507,18580 44507,18638 44487,18696 44487,18754 43287,18754 43287,18696 43267,18638 43267,18580 43287,18522 43287,18464 40454,18464 40454,18522 40474,18580 40474,18638 40454,18696 40454,18754 39254,18754 39254,18696 39234,18638 39234,18580 39254,18522 39254,18464 36421,18464 36421,18522 36441,18580 36441,18638 36421,18696 36421,18754 35221,18754 35221,18696 35201,18638 35201,18580 35221,18522 35221,18464 32387,18464 32387,18522 32407,18580 32407,18638 32387,18696 32387,18754 31187,18754 31187,18696 31167,18638 31167,18580 31187,18522 31187,18464 28354,18464 28354,18522 28374,18580 28374,18638 28354,18696 28354,18754 27154,18754 27154,18696 27134,18638 27134,18580 27154,18522 27154,18464 24321,18464 24321,18522 24341,18580 24341,18638 24321,18696 24321,18754 23121,18754 23121,18696 23101,18638 23101,18580 23121,18522 23121,18464 22321,18464 22321,17664 22263,17664 22205,17684 22147,17684 22089,17664 22031,17664 22031,16464 22089,16464 22147,16444 22205,16444 22263,16464 22321,16464 22321,12664 22263,12664 22205,12684 22147,12684 22089,12664 22031,12664 22031,11464 22089,11464 22147,11444 22205,11444 22263,11464 22321,11464 22321,7664 22263,7664 22205,7684 22147,7684 22089,7664 22031,7664 22031,6464 22089,6464 22147,6444 22205,6444 22263,6464 22321,6464 22321,2664 22263,2664 22205,2684 22147,2684 22089,2664 22031,2664 22031,1464 22089,1464 22147,1444 22205,1444 22263,1464 22321,1464 22321,664 23121,664 23121,606 23101,548 23101,490 23121,432 "
         id="polygon7"
         style="fill:none;stroke:#303030;stroke-width:20;stroke-miterlimit:4;stroke-dasharray:none" /></g></g></svg>