<?xml version="1.0" encoding="UTF-8" standalone="no"?>
<svg
   xmlns:dc="http://purl.org/dc/elements/1.1/"
   xmlns:cc="http://creativecommons.org/ns#"
   xmlns:rdf="http://www.w3.org/1999/02/22-rdf-syntax-ns#"
   xmlns:svg="http://www.w3.org/2000/svg"
   xmlns="http://www.w3.org/2000/svg"
   xmlns:sodipodi="http://sodipodi.sourceforge.net/DTD/sodipodi-0.dtd"
   xmlns:inkscape="http://www.inkscape.org/namespaces/inkscape"
   xml:space="preserve"
   width="288mm"
   height="175mm"
   version="1.1"
   style="clip-rule:evenodd;fill-rule:evenodd;image-rendering:optimizeQuality;shape-rendering:geometricPrecision;text-rendering:geometricPrecision"
   viewBox="0 0 28800 17500"
   id="svg87"
   sodipodi:docname="box_sides_2.svg"
   inkscape:version="0.92.1 r15371"><metadata
     id="metadata91"><rdf:RDF><cc:Work
         rdf:about=""><dc:format>image/svg+xml</dc:format><dc:type
           rdf:resource="http://purl.org/dc/dcmitype/StillImage" /><dc:title></dc:title></cc:Work></rdf:RDF></metadata><sodipodi:namedview
     pagecolor="#ffffff"
     bordercolor="#666666"
     borderopacity="1"
     objecttolerance="10"
     gridtolerance="10"
     guidetolerance="10"
     inkscape:pageopacity="0"
     inkscape:pageshadow="2"
     inkscape:window-width="1280"
     inkscape:window-height="962"
     id="namedview89"
     showgrid="false"
     inkscape:zoom="0.60113333"
     inkscape:cx="521.04656"
     inkscape:cy="316.02281"
     inkscape:window-x="-8"
     inkscape:window-y="48"
     inkscape:window-maximized="1"
     inkscape:current-layer="svg87" /><defs
     id="defs4"><style
       type="text/css"
       id="style2"><![CDATA[
    .str0 {stroke:#088CA2;stroke-width:0.01}
    .str1 {stroke:#303030;stroke-width:0.01}
    .str2 {stroke:#2B2A29;stroke-width:20}
    .fil0 {fill:none}
   ]]></style></defs><g
     id="g4544"
     transform="translate(-21082.699,12487.225)"><g
       transform="translate(0,-12500)"
       style="stroke-width:20;stroke-miterlimit:4;stroke-dasharray:none"
       id="g39"><polygon
         style="fill:none;stroke:#303030;stroke-width:20;stroke-miterlimit:4;stroke-dasharray:none"
         id="polygon23"
         points="47116,3740 48316,3740 48316,4030 47116,4030 "
         class="fil0 str1" /><polygon
         style="fill:none;stroke:#303030;stroke-width:20;stroke-miterlimit:4;stroke-dasharray:none"
         id="polygon25"
         points="43082,3740 44282,3740 44282,4030 43082,4030 "
         class="fil0 str1" /><polygon
         style="fill:none;stroke:#303030;stroke-width:20;stroke-miterlimit:4;stroke-dasharray:none"
         id="polygon27"
         points="39049,3740 40249,3740 40249,4030 39049,4030 "
         class="fil0 str1" /><polygon
         style="fill:none;stroke:#303030;stroke-width:20;stroke-miterlimit:4;stroke-dasharray:none"
         id="polygon29"
         points="35016,3740 36216,3740 36216,4030 35016,4030 "
         class="fil0 str1" /><polygon
         style="fill:none;stroke:#303030;stroke-width:20;stroke-miterlimit:4;stroke-dasharray:none"
         id="polygon31"
         points="30982,3740 32182,3740 32182,4030 30982,4030 "
         class="fil0 str1" /><polygon
         style="fill:none;stroke:#303030;stroke-width:20;stroke-miterlimit:4;stroke-dasharray:none"
         id="polygon33"
         points="26949,3740 28149,3740 28149,4030 26949,4030 "
         class="fil0 str1" /><polygon
         style="fill:none;stroke:#303030;stroke-width:20;stroke-miterlimit:4;stroke-dasharray:none"
         id="polygon35"
         points="22916,3740 24116,3740 24116,4030 22916,4030 "
         class="fil0 str1" /><polygon
         style="fill:none;stroke:#088ca2;stroke-width:20;stroke-miterlimit:4;stroke-dasharray:none"
         id="polygon37"
         points="49174,1340 49116,1340 49116,2235 49174,2235 49232,2215 49290,2215 49348,2235 49406,2235 49406,2635 49348,2635 49290,2655 49232,2655 49174,2635 49116,2635 49116,3530 49174,3530 49232,3510 49290,3510 49348,3530 49406,3530 49406,3930 49348,3930 49290,3950 49232,3950 49174,3930 49116,3930 49116,4330 22116,4330 22116,3930 22058,3930 22000,3950 21942,3950 21884,3930 21826,3930 21826,3530 21884,3530 21942,3510 22000,3510 22058,3530 22116,3530 22116,2635 22058,2635 22000,2655 21942,2655 21884,2635 21826,2635 21826,2235 21884,2235 21942,2215 22000,2215 22058,2235 22116,2235 22116,1340 22058,1340 22000,1360 21942,1360 21884,1340 21826,1340 21826,940 21884,940 21942,920 22000,920 22058,940 22116,940 22116,540 49116,540 49116,940 49174,940 49232,920 49290,920 49348,940 49406,940 49406,1340 49348,1340 49290,1360 49232,1360 "
         class="fil0 str0" /></g><g
       transform="translate(0,-12500)"
       style="stroke-width:20;stroke-miterlimit:4;stroke-dasharray:none"
       id="g51"><polygon
         style="fill:none;stroke:#303030;stroke-width:20;stroke-miterlimit:4;stroke-dasharray:none"
         id="polygon41"
         points="47116,12274 48316,12274 48316,12564 47116,12564 "
         class="fil0 str1" /><polygon
         style="fill:none;stroke:#303030;stroke-width:20;stroke-miterlimit:4;stroke-dasharray:none"
         id="polygon43"
         points="42116,12274 43316,12274 43316,12564 42116,12564 "
         class="fil0 str1" /><polygon
         style="fill:none;stroke:#303030;stroke-width:20;stroke-miterlimit:4;stroke-dasharray:none"
         id="polygon45"
         points="37116,12274 38316,12274 38316,12564 37116,12564 "
         class="fil0 str1" /><polygon
         style="fill:none;stroke:#303030;stroke-width:20;stroke-miterlimit:4;stroke-dasharray:none"
         id="polygon47"
         points="32116,12274 33316,12274 33316,12564 32116,12564 "
         class="fil0 str1" /><polygon
         style="fill:none;stroke:#088ca2;stroke-width:20;stroke-miterlimit:4;stroke-dasharray:none"
         id="polygon49"
         points="49116,12464 49406,12464 49406,12864 31026,12864 31026,12464 31316,12464 31316,12064 31026,12064 31026,11169 31316,11169 31316,10769 31026,10769 31026,9874 31316,9874 31316,9474 31026,9474 31026,9074 49406,9074 49406,9474 49116,9474 49116,9874 49406,9874 49406,10769 49116,10769 49116,11169 49406,11169 49406,12064 49116,12064 "
         class="fil0 str0" /></g><g
       transform="translate(0,-12500)"
       style="stroke-width:20;stroke-miterlimit:4;stroke-dasharray:none"
       id="g69"><polygon
         style="fill:none;stroke:#088ca2;stroke-width:20;stroke-miterlimit:4;stroke-dasharray:none"
         id="polygon53"
         points="49174,5607 49116,5607 49116,6502 49174,6502 49232,6482 49290,6482 49348,6502 49406,6502 49406,6902 49348,6902 49290,6922 49232,6922 49174,6902 49116,6902 49116,7797 49174,7797 49232,7777 49290,7777 49348,7797 49406,7797 49406,8197 49348,8197 49290,8217 49232,8217 49174,8197 49116,8197 49116,8597 22116,8597 22116,8197 22058,8197 22000,8217 21942,8217 21884,8197 21826,8197 21826,7797 21884,7797 21942,7777 22000,7777 22058,7797 22116,7797 22116,6902 22058,6902 22000,6922 21942,6922 21884,6902 21826,6902 21826,6502 21884,6502 21942,6482 22000,6482 22058,6502 22116,6502 22116,5607 22058,5607 22000,5627 21942,5627 21884,5607 21826,5607 21826,5207 21884,5207 21942,5187 22000,5187 22058,5207 22116,5207 22116,4807 49116,4807 49116,5207 49174,5207 49232,5187 49290,5187 49348,5207 49406,5207 49406,5607 49348,5607 49290,5627 49232,5627 "
         class="fil0 str0" /><polygon
         style="fill:none;stroke:#303030;stroke-width:20;stroke-miterlimit:4;stroke-dasharray:none"
         id="polygon55"
         points="22916,8007 24116,8007 24116,8297 22916,8297 "
         class="fil0 str1" /><polygon
         style="fill:none;stroke:#303030;stroke-width:20;stroke-miterlimit:4;stroke-dasharray:none"
         id="polygon57"
         points="26949,8007 28149,8007 28149,8297 26949,8297 "
         class="fil0 str1" /><polygon
         style="fill:none;stroke:#303030;stroke-width:20;stroke-miterlimit:4;stroke-dasharray:none"
         id="polygon59"
         points="30982,8007 32182,8007 32182,8297 30982,8297 "
         class="fil0 str1" /><polygon
         style="fill:none;stroke:#303030;stroke-width:20;stroke-miterlimit:4;stroke-dasharray:none"
         id="polygon61"
         points="35016,8007 36216,8007 36216,8297 35016,8297 "
         class="fil0 str1" /><polygon
         style="fill:none;stroke:#303030;stroke-width:20;stroke-miterlimit:4;stroke-dasharray:none"
         id="polygon63"
         points="39049,8007 40249,8007 40249,8297 39049,8297 "
         class="fil0 str1" /><polygon
         style="fill:none;stroke:#303030;stroke-width:20;stroke-miterlimit:4;stroke-dasharray:none"
         id="polygon65"
         points="43082,8007 44282,8007 44282,8297 43082,8297 "
         class="fil0 str1" /><polygon
         style="fill:none;stroke:#303030;stroke-width:20;stroke-miterlimit:4;stroke-dasharray:none"
         id="polygon67"
         points="47116,8007 48316,8007 48316,8297 47116,8297 "
         class="fil0 str1" /></g><g
       transform="translate(0,-12500)"
       style="stroke-width:20;stroke-miterlimit:4;stroke-dasharray:none"
       id="g81"><polygon
         style="fill:none;stroke:#088ca2;stroke-width:20;stroke-miterlimit:4;stroke-dasharray:none"
         id="polygon71"
         points="49116,16731 49406,16731 49406,17131 31026,17131 31026,16731 31316,16731 31316,16331 31026,16331 31026,15436 31316,15436 31316,15036 31026,15036 31026,14141 31316,14141 31316,13741 31026,13741 31026,13341 49406,13341 49406,13741 49116,13741 49116,14141 49406,14141 49406,15036 49116,15036 49116,15436 49406,15436 49406,16331 49116,16331 "
         class="fil0 str0" /><polygon
         style="fill:none;stroke:#303030;stroke-width:20;stroke-miterlimit:4;stroke-dasharray:none"
         id="polygon73"
         points="32116,16541 33316,16541 33316,16831 32116,16831 "
         class="fil0 str1" /><polygon
         style="fill:none;stroke:#303030;stroke-width:20;stroke-miterlimit:4;stroke-dasharray:none"
         id="polygon75"
         points="37116,16541 38316,16541 38316,16831 37116,16831 "
         class="fil0 str1" /><polygon
         style="fill:none;stroke:#303030;stroke-width:20;stroke-miterlimit:4;stroke-dasharray:none"
         id="polygon77"
         points="42116,16541 43316,16541 43316,16831 42116,16831 "
         class="fil0 str1" /><polygon
         style="fill:none;stroke:#303030;stroke-width:20;stroke-miterlimit:4;stroke-dasharray:none"
         id="polygon79"
         points="47116,16541 48316,16541 48316,16831 47116,16831 "
         class="fil0 str1" /></g><rect
       style="fill:none;stroke:#2b2a29;stroke-width:20;stroke-miterlimit:4;stroke-dasharray:none"
       id="rect83"
       height="17500"
       width="28800.002"
       y="-12487.225"
       x="21082.699"
       class="fil0 str2" /></g></svg>