<?xml version="1.0" encoding="UTF-8" standalone="no"?>
<svg
   xmlns:dc="http://purl.org/dc/elements/1.1/"
   xmlns:cc="http://creativecommons.org/ns#"
   xmlns:rdf="http://www.w3.org/1999/02/22-rdf-syntax-ns#"
   xmlns:svg="http://www.w3.org/2000/svg"
   xmlns="http://www.w3.org/2000/svg"
   xmlns:sodipodi="http://sodipodi.sourceforge.net/DTD/sodipodi-0.dtd"
   xmlns:inkscape="http://www.inkscape.org/namespaces/inkscape"
   xml:space="preserve"
   width="296mm"
   height="105mm"
   version="1.1"
   style="clip-rule:evenodd;fill-rule:evenodd;image-rendering:optimizeQuality;shape-rendering:geometricPrecision;text-rendering:geometricPrecision"
   viewBox="0 0 29600 10500"
   id="svg87"
   sodipodi:docname="cover_sides_2.svg"
   inkscape:version="0.92.1 r15371"><metadata
     id="metadata91"><rdf:RDF><cc:Work
         rdf:about=""><dc:format>image/svg+xml</dc:format><dc:type
           rdf:resource="http://purl.org/dc/dcmitype/StillImage" /><dc:title></dc:title></cc:Work></rdf:RDF></metadata><sodipodi:namedview
     pagecolor="#ffffff"
     bordercolor="#666666"
     borderopacity="1"
     objecttolerance="10"
     gridtolerance="10"
     guidetolerance="10"
     inkscape:pageopacity="0"
     inkscape:pageshadow="2"
     inkscape:window-width="1280"
     inkscape:window-height="962"
     id="namedview89"
     showgrid="false"
     inkscape:zoom="0.60113333"
     inkscape:cx="632.02783"
     inkscape:cy="126.9545"
     inkscape:window-x="-8"
     inkscape:window-y="48"
     inkscape:window-maximized="1"
     inkscape:current-layer="svg87" /><defs
     id="defs4"><style
       type="text/css"
       id="style2"><![CDATA[
    .str0 {stroke:#088CA2;stroke-width:0.01}
    .str1 {stroke:#303030;stroke-width:0.01}
    .str2 {stroke:#2B2A29;stroke-width:20}
    .fil0 {fill:none}
   ]]></style></defs><g
     id="g4656"
     transform="matrix(1.0006621,0,0,1.0021475,-20411.506,-17151.255)"
     style="stroke-width:0.9985975"><g
       style="stroke-width:19.97195053;stroke-miterlimit:4;stroke-dasharray:none"
       id="g9"><polygon
         style="fill:none;stroke:#088ca2;stroke-width:19.97195053;stroke-miterlimit:4;stroke-dasharray:none"
         id="polygon7"
         points="49406,21684 49348,21684 49290,21704 49232,21704 49174,21684 49116,21684 49116,22084 48316,22084 48316,21794 47116,21794 47116,22084 44747,22084 44747,21794 43547,21794 43547,22084 41179,22084 41179,21794 39979,21794 39979,22084 37610,22084 37610,21794 36410,21794 36410,22084 34041,22084 34041,21794 32841,21794 32841,22084 30473,22084 30473,21794 29273,21794 29273,22084 26904,22084 26904,21794 25704,21794 25704,22084 23336,22084 23336,21794 22136,21794 22136,22084 21336,22084 21336,21684 21278,21684 21220,21704 21162,21704 21104,21684 21046,21684 21046,21284 21104,21284 21162,21264 21220,21264 21278,21284 21336,21284 21336,20884 21278,20884 21220,20904 21162,20904 21104,20884 21046,20884 21046,20484 21104,20484 21162,20464 21220,20464 21278,20484 21336,20484 21336,20084 49116,20084 49116,20484 49174,20484 49232,20464 49290,20464 49348,20484 49406,20484 49406,20884 49348,20884 49290,20904 49232,20904 49174,20884 49116,20884 49116,21284 49174,21284 49232,21264 49290,21264 49348,21284 49406,21284 "
         class="fil0 str0" /></g><g
       style="stroke-width:19.97195053;stroke-miterlimit:4;stroke-dasharray:none"
       id="g13"><polygon
         style="fill:none;stroke:#088ca2;stroke-width:19.97195053;stroke-miterlimit:4;stroke-dasharray:none"
         id="polygon11"
         points="40426,26748 39226,26748 39226,27038 36481,27038 36481,26748 35281,26748 35281,27038 32536,27038 32536,26748 31336,26748 31336,27038 30246,27038 30246,26638 30536,26638 30536,26238 30246,26238 30246,25838 30536,25838 30536,25438 30246,25438 30246,25038 49406,25038 49406,25438 49116,25438 49116,25838 49406,25838 49406,26238 49116,26238 49116,26638 49406,26638 49406,27038 48316,27038 48316,26748 47116,26748 47116,27038 44371,27038 44371,26748 43171,26748 43171,27038 40426,27038 "
         class="fil0 str0" /></g><g
       style="stroke-width:19.97195053;stroke-miterlimit:4;stroke-dasharray:none"
       id="g17"><polygon
         style="fill:none;stroke:#088ca2;stroke-width:19.97195053;stroke-miterlimit:4;stroke-dasharray:none"
         id="polygon15"
         points="49406,19208 49348,19208 49290,19228 49232,19228 49174,19208 49116,19208 49116,19608 48316,19608 48316,19318 47116,19318 47116,19608 44747,19608 44747,19318 43547,19318 43547,19608 41179,19608 41179,19318 39979,19318 39979,19608 37610,19608 37610,19318 36410,19318 36410,19608 34041,19608 34041,19318 32841,19318 32841,19608 30473,19608 30473,19318 29273,19318 29273,19608 26904,19608 26904,19318 25704,19318 25704,19608 23336,19608 23336,19318 22136,19318 22136,19608 21336,19608 21336,19208 21278,19208 21220,19228 21162,19228 21104,19208 21046,19208 21046,18808 21104,18808 21162,18788 21220,18788 21278,18808 21336,18808 21336,18408 21278,18408 21220,18428 21162,18428 21104,18408 21046,18408 21046,18008 21104,18008 21162,17988 21220,17988 21278,18008 21336,18008 21336,17608 49116,17608 49116,18008 49174,18008 49232,17988 49290,17988 49348,18008 49406,18008 49406,18408 49348,18408 49290,18428 49232,18428 49174,18408 49116,18408 49116,18808 49174,18808 49232,18788 49290,18788 49348,18808 49406,18808 "
         class="fil0 str0" /></g><g
       style="stroke-width:19.97195053;stroke-miterlimit:4;stroke-dasharray:none"
       id="g21"><polygon
         style="fill:none;stroke:#088ca2;stroke-width:19.97195053;stroke-miterlimit:4;stroke-dasharray:none"
         id="polygon19"
         points="40426,24271 39226,24271 39226,24561 36481,24561 36481,24271 35281,24271 35281,24561 32536,24561 32536,24271 31336,24271 31336,24561 30246,24561 30246,24161 30536,24161 30536,23761 30246,23761 30246,23361 30536,23361 30536,22961 30246,22961 30246,22561 49406,22561 49406,22961 49116,22961 49116,23361 49406,23361 49406,23761 49116,23761 49116,24161 49406,24161 49406,24561 48316,24561 48316,24271 47116,24271 47116,24561 44371,24561 44371,24271 43171,24271 43171,24561 40426,24561 "
         class="fil0 str0" /></g><rect
       style="fill:none;stroke:#2b2a29;stroke-width:19.97195053;stroke-miterlimit:4;stroke-dasharray:none"
       id="rect83"
       height="10477.5"
       width="29580.416"
       y="17114.502"
       x="20398"
       class="fil0 str2" /></g></svg>