<?xml version="1.0" encoding="UTF-8" standalone="no"?>
<svg
   xmlns:dc="http://purl.org/dc/elements/1.1/"
   xmlns:cc="http://creativecommons.org/ns#"
   xmlns:rdf="http://www.w3.org/1999/02/22-rdf-syntax-ns#"
   xmlns:svg="http://www.w3.org/2000/svg"
   xmlns="http://www.w3.org/2000/svg"
   xmlns:sodipodi="http://sodipodi.sourceforge.net/DTD/sodipodi-0.dtd"
   xmlns:inkscape="http://www.inkscape.org/namespaces/inkscape"
   xml:space="preserve"
   width="283.60001mm"
   height="191.60001mm"
   version="1.1"
   style="clip-rule:evenodd;fill-rule:evenodd;image-rendering:optimizeQuality;shape-rendering:geometricPrecision;text-rendering:geometricPrecision"
   viewBox="0 0 28360.001 19160.001"
   id="svg254"
   sodipodi:docname="cover_top.svg"
   inkscape:version="0.92.1 r15371"><metadata
     id="metadata258"><rdf:RDF><cc:Work
         rdf:about=""><dc:format>image/svg+xml</dc:format><dc:type
           rdf:resource="http://purl.org/dc/dcmitype/StillImage" /><dc:title></dc:title></cc:Work></rdf:RDF></metadata><sodipodi:namedview
     pagecolor="#ffffff"
     bordercolor="#666666"
     borderopacity="1"
     objecttolerance="10"
     gridtolerance="10"
     guidetolerance="10"
     inkscape:pageopacity="0"
     inkscape:pageshadow="2"
     inkscape:window-width="1174"
     inkscape:window-height="852"
     id="namedview256"
     showgrid="false"
     inkscape:zoom="0.60113333"
     inkscape:cx="474.80733"
     inkscape:cy="414.74697"
     inkscape:window-x="0"
     inkscape:window-y="56"
     inkscape:window-maximized="0"
     inkscape:current-layer="svg254" /><defs
     id="defs4"><style
       type="text/css"
       id="style2"><![CDATA[
    .str0 {stroke:#303030;stroke-width:0.01}
    .str1 {stroke:#E5097F;stroke-width:20}
    .fil0 {fill:none}
   ]]></style></defs><g
     id="g4985"
     transform="translate(-16875,-3787.9986)"><g
       id="_1094477664"
       style="stroke-width:30;stroke-miterlimit:4;stroke-dasharray:none"><polygon
         class="fil0 str0"
         points="19165,3846 19185,3904 19185,3962 19165,4020 19165,4078 21534,4078 21534,4020 21514,3962 21514,3904 21534,3846 21534,3788 22734,3788 22734,3846 22754,3904 22754,3962 22734,4020 22734,4078 25103,4078 25103,4020 25083,3962 25083,3904 25103,3846 25103,3788 26303,3788 26303,3846 26323,3904 26323,3962 26303,4020 26303,4078 28671,4078 28671,4020 28651,3962 28651,3904 28671,3846 28671,3788 29871,3788 29871,3846 29891,3904 29891,3962 29871,4020 29871,4078 32240,4078 32240,4020 32220,3962 32220,3904 32240,3846 32240,3788 33440,3788 33440,3846 33460,3904 33460,3962 33440,4020 33440,4078 35808,4078 35808,4020 35788,3962 35788,3904 35808,3846 35808,3788 37008,3788 37008,3846 37028,3904 37028,3962 37008,4020 37008,4078 39377,4078 39377,4020 39357,3962 39357,3904 39377,3846 39377,3788 40577,3788 40577,3846 40597,3904 40597,3962 40577,4020 40577,4078 42945,4078 42945,4020 42925,3962 42925,3904 42945,3846 42945,3788 44145,3788 44145,3846 44165,3904 44165,3962 44145,4020 44145,4078 44945,4078 44945,4878 45003,4878 45061,4858 45119,4858 45177,4878 45235,4878 45235,6078 45177,6078 45119,6098 45061,6098 45003,6078 44945,6078 44945,8823 45003,8823 45061,8803 45119,8803 45177,8823 45235,8823 45235,10023 45177,10023 45119,10043 45061,10043 45003,10023 44945,10023 44945,12768 45003,12768 45061,12748 45119,12748 45177,12768 45235,12768 45235,13968 45177,13968 45119,13988 45061,13988 45003,13968 44945,13968 44945,16713 45003,16713 45061,16693 45119,16693 45177,16713 45235,16713 45235,17913 45177,17913 45119,17933 45061,17933 45003,17913 44945,17913 44945,20658 45003,20658 45061,20638 45119,20638 45177,20658 45235,20658 45235,21858 45177,21858 45119,21878 45061,21878 45003,21858 44945,21858 44945,22658 44145,22658 44145,22716 44165,22774 44165,22832 44145,22890 44145,22948 42945,22948 42945,22890 42925,22832 42925,22774 42945,22716 42945,22658 40577,22658 40577,22716 40597,22774 40597,22832 40577,22890 40577,22948 39377,22948 39377,22890 39357,22832 39357,22774 39377,22716 39377,22658 37008,22658 37008,22716 37028,22774 37028,22832 37008,22890 37008,22948 35808,22948 35808,22890 35788,22832 35788,22774 35808,22716 35808,22658 33440,22658 33440,22716 33460,22774 33460,22832 33440,22890 33440,22948 32240,22948 32240,22890 32220,22832 32220,22774 32240,22716 32240,22658 29871,22658 29871,22716 29891,22774 29891,22832 29871,22890 29871,22948 28671,22948 28671,22890 28651,22832 28651,22774 28671,22716 28671,22658 26303,22658 26303,22716 26323,22774 26323,22832 26303,22890 26303,22948 25103,22948 25103,22890 25083,22832 25083,22774 25103,22716 25103,22658 22734,22658 22734,22716 22754,22774 22754,22832 22734,22890 22734,22948 21534,22948 21534,22890 21514,22832 21514,22774 21534,22716 21534,22658 19165,22658 19165,22716 19185,22774 19185,22832 19165,22890 19165,22948 17965,22948 17965,22890 17945,22832 17945,22774 17965,22716 17965,22658 17165,22658 17165,21858 17107,21858 17049,21878 16991,21878 16933,21858 16875,21858 16875,20658 16933,20658 16991,20638 17049,20638 17107,20658 17165,20658 17165,17913 17107,17913 17049,17933 16991,17933 16933,17913 16875,17913 16875,16713 16933,16713 16991,16693 17049,16693 17107,16713 17165,16713 17165,13968 17107,13968 17049,13988 16991,13988 16933,13968 16875,13968 16875,12768 16933,12768 16991,12748 17049,12748 17107,12768 17165,12768 17165,10023 17107,10023 17049,10043 16991,10043 16933,10023 16875,10023 16875,8823 16933,8823 16991,8803 17049,8803 17107,8823 17165,8823 17165,6078 17107,6078 17049,6098 16991,6098 16933,6078 16875,6078 16875,4878 16933,4878 16991,4858 17049,4858 17107,4878 17165,4878 17165,4078 17965,4078 17965,4020 17945,3962 17945,3904 17965,3846 17965,3788 19165,3788 "
         id="polygon7"
         style="fill:none;stroke:#303030;stroke-width:30;stroke-miterlimit:4;stroke-dasharray:none" /></g><g
       id="_1094486112"
       style="stroke:#7800ff;stroke-width:30;stroke-miterlimit:4;stroke-dasharray:none;stroke-opacity:1"><path
         class="fil0 str1"
         d="m 19164,11414 c 593,-1248 727,-2663 389,-4015 7662,151 15373,81 23038,-102 l 102,1190 -198,70 -29,1093 250,110 -231,1503 c -7742,221 -15536,312 -23321,151 z"
         id="path10"
         style="fill:none;stroke:#7800ff;stroke-width:30;stroke-miterlimit:4;stroke-dasharray:none;stroke-opacity:1"
         inkscape:connector-curvature="0" /><path
         class="fil0 str1"
         d="m 19692,11081 c 470,-1291 488,-2009 274,-3366 2764,54 5457,73 8129,65 l 446,707 12,-709 c 435,-1 869,-4 1304,-7 l -131,846 616,-849 c 1497,-12 2992,-31 4494,-54 83,989 -77,1492 338,1492 460,-44 189,-850 103,-1498 827,-13 1656,-28 2490,-44 l -59,1187 c -5,109 535,-1196 644,-1198 1209,-26 2430,-53 3666,-83 l 40,770 c -739,-13 -1098,-123 -1177,209 31,283 382,181 1111,196 l -32,889 c -836,105 -1212,-140 -1256,269 76,372 937,310 1375,182 l -175,925 -3632,42 -37,-1179 -621,1187 -2333,30 21,-730 c 16,-266 -418,-506 -492,-184 l -10,920 -4576,59 -499,-739 25,787 -1255,6 -9,-821 -376,799 -1540,14 -375,-767 -679,-27 -123,782 -1583,-35 383,-769 -615,-21 3,787 c -1280,-19 -2574,-43 -3889,-70 z"
         id="path12"
         style="fill:none;stroke:#7800ff;stroke-width:30;stroke-miterlimit:4;stroke-dasharray:none;stroke-opacity:1"
         inkscape:connector-curvature="0" /><path
         class="fil0 str1"
         d="m 22508,7759 c 4,469 44,921 118,1381 l -1139,-16 c -82,-367 -99,-474 -327,-472 -219,2 -244,456 -272,717 -27,238 29,836 329,819 217,-13 279,-188 231,-736 l 1235,51 c -113,543 -255,1063 -340,1628"
         id="path14"
         style="fill:none;stroke:#7800ff;stroke-width:30;stroke-miterlimit:4;stroke-dasharray:none;stroke-opacity:1"
         inkscape:connector-curvature="0" /><line
         class="fil0 str1"
         x1="22293"
         y1="9136"
         x2="22279"
         y2="9486"
         id="line16"
         style="fill:none;stroke:#7800ff;stroke-width:30;stroke-miterlimit:4;stroke-dasharray:none;stroke-opacity:1" /><path
         class="fil0 str1"
         d="m 23790,8400 c 201,1 225,185 220,587 -4,365 2,575 -209,569 -206,-6 -236,-162 -232,-578 5,-382 -35,-578 221,-578 z"
         id="path18"
         style="fill:none;stroke:#7800ff;stroke-width:30;stroke-miterlimit:4;stroke-dasharray:none;stroke-opacity:1"
         inkscape:connector-curvature="0" /><path
         class="fil0 str1"
         d="m 24193,10385 825,20 c -180,-849 -153,-1725 90,-2628"
         id="path20"
         style="fill:none;stroke:#7800ff;stroke-width:30;stroke-miterlimit:4;stroke-dasharray:none;stroke-opacity:1"
         inkscape:connector-curvature="0" /><polygon
         class="fil0 str1"
         points="25994,9476 25789,8839 25518,9471 "
         id="polygon22"
         style="fill:none;stroke:#7800ff;stroke-width:30;stroke-miterlimit:4;stroke-dasharray:none;stroke-opacity:1" /><line
         class="fil0 str1"
         x1="28110"
         y1="11187"
         x2="26674"
         y2="7782"
         id="line24"
         style="fill:none;stroke:#7800ff;stroke-width:30;stroke-miterlimit:4;stroke-dasharray:none;stroke-opacity:1" /><polyline
         class="fil0 str1"
         points="26861,8225 27751,9091 27431,9577 "
         id="polyline26"
         style="fill:none;stroke:#7800ff;stroke-width:30;stroke-miterlimit:4;stroke-dasharray:none;stroke-opacity:1" /><polyline
         class="fil0 str1"
         points="31611,7756 30644,9131 31602,11137 31602,11137 "
         id="polyline28"
         style="fill:none;stroke:#7800ff;stroke-width:30;stroke-miterlimit:4;stroke-dasharray:none;stroke-opacity:1" /><line
         class="fil0 str1"
         x1="30973"
         y1="8662"
         x2="30895"
         y2="9657"
         id="line30"
         style="fill:none;stroke:#7800ff;stroke-width:30;stroke-miterlimit:4;stroke-dasharray:none;stroke-opacity:1" /><path
         class="fil0 str1"
         d="m 33856,7728 c 14,327 28,653 42,979 -820,-280 -1766,-220 -1742,52 142,368 738,352 1568,140 -19,310 -39,620 -58,930 -839,-77 -1558,13 -1550,182 61,517 738,471 1669,220 l -137,880 h -22"
         id="path32"
         style="fill:none;stroke:#7800ff;stroke-width:30;stroke-miterlimit:4;stroke-dasharray:none;stroke-opacity:1"
         inkscape:connector-curvature="0" /><line
         class="fil0 str1"
         x1="33566"
         y1="8612"
         x2="33559"
         y2="8939"
         id="line34"
         style="fill:none;stroke:#7800ff;stroke-width:30;stroke-miterlimit:4;stroke-dasharray:none;stroke-opacity:1" /><line
         class="fil0 str1"
         x1="33526"
         y1="9817"
         x2="33500"
         y2="10303"
         id="line36"
         style="fill:none;stroke:#7800ff;stroke-width:30;stroke-miterlimit:4;stroke-dasharray:none;stroke-opacity:1" /><path
         class="fil0 str1"
         d="m 36916,7680 c -318,1105 -378,2233 -132,3391 v 0"
         id="path38"
         style="fill:none;stroke:#7800ff;stroke-width:30;stroke-miterlimit:4;stroke-dasharray:none;stroke-opacity:1"
         inkscape:connector-curvature="0" /><path
         class="fil0 str1"
         d="m 39726,7623 c -318,1105 -312,2256 -66,3413 l -66,-22"
         id="path40"
         style="fill:none;stroke:#7800ff;stroke-width:30;stroke-miterlimit:4;stroke-dasharray:none;stroke-opacity:1"
         inkscape:connector-curvature="0" /><path
         class="fil0 str1"
         d="m 39549,8449 c 53,828 42,1430 -6,1904"
         id="path42"
         style="fill:none;stroke:#7800ff;stroke-width:30;stroke-miterlimit:4;stroke-dasharray:none;stroke-opacity:1"
         inkscape:connector-curvature="0" /></g><path
       class="fil0 str1"
       d="m 20038,13283 c 234,-322 624,-587 1341,-768 340,-194 614,-500 1076,-538 585,-47 895,282 877,618 -8,171 -635,135 -1265,35 -704,101 -1383,305 -2029,653 z"
       id="path45"
       style="fill:none;stroke:#7800ff;stroke-width:30;stroke-miterlimit:4;stroke-dasharray:none;stroke-opacity:1"
       inkscape:connector-curvature="0" /><path
       class="fil0 str1"
       d="m 21090,17463 c -1277,-791 -1911,-1792 -895,-3193 857,-1056 2102,-1486 3294,-1058 936,-524 1733,-511 2293,423 1905,-76 2890,664 3195,1201 298,525 -104,1176 -1131,1939 246,999 -611,1524 -2011,1817 -981,978 -2326,999 -3117,850 -830,-158 -1566,-636 -1628,-1979 z"
       id="path47"
       style="fill:none;stroke:#7800ff;stroke-width:30;stroke-miterlimit:4;stroke-dasharray:none;stroke-opacity:1"
       inkscape:connector-curvature="0" /><ellipse
       class="fil0 str1"
       cx="24397"
       cy="16471"
       rx="1067"
       ry="988"
       id="ellipse49"
       style="fill:none;stroke:#7800ff;stroke-width:30;stroke-miterlimit:4;stroke-dasharray:none;stroke-opacity:1" /><ellipse
       class="fil0 str1"
       cx="24397"
       cy="16471"
       rx="210"
       ry="195"
       id="ellipse51"
       style="fill:none;stroke:#7800ff;stroke-width:30;stroke-miterlimit:4;stroke-dasharray:none;stroke-opacity:1" /><g
       id="_1094470880"
       style="stroke:#7800ff;stroke-width:30;stroke-miterlimit:4;stroke-dasharray:none;stroke-opacity:1"><path
         class="fil0 str1"
         d="m 26275,17100 c 161,0 292,128 292,286 0,158 -131,285 -292,285 -154,0 -279,-115 -291,-263 m 4,-77 c 12,-61 44,-115 89,-155 m -2,-3 c -31,12 -65,19 -101,19 -29,0 -57,-5 -83,-13 m -2,3 c 43,38 75,90 88,149 m 5,77 c -10,145 -132,259 -281,259 -156,0 -283,-124 -283,-278 0,-153 127,-278 283,-278 31,0 61,5 89,15 m 0,-1 c -60,-51 -98,-127 -98,-211 0,-153 126,-278 282,-278 156,0 282,125 282,278 0,84 -37,158 -97,209 m 0,1 c 36,-15 75,-24 116,-24"
         id="path53"
         style="fill:none;stroke:#7800ff;stroke-width:30;stroke-miterlimit:4;stroke-dasharray:none;stroke-opacity:1"
         inkscape:connector-curvature="0" /><path
         class="fil0 str1"
         d="m 25886,16808 c -48,19 -46,83 -49,194 49,4 53,15 96,19 -13,-145 -6,-236 -47,-213 z"
         id="path55"
         style="fill:none;stroke:#7800ff;stroke-width:30;stroke-miterlimit:4;stroke-dasharray:none;stroke-opacity:1"
         inkscape:connector-curvature="0" /><path
         class="fil0 str1"
         d="m 25611,17275 c -47,20 -44,35 -47,146 8,24 66,35 100,28 -13,-145 -12,-197 -53,-174 z"
         id="path57"
         style="fill:none;stroke:#7800ff;stroke-width:30;stroke-miterlimit:4;stroke-dasharray:none;stroke-opacity:1"
         inkscape:connector-curvature="0" /><path
         class="fil0 str1"
         d="m 26206,17300 c -48,20 -42,128 -27,172 16,24 43,9 86,13 -20,-135 -22,-169 -59,-185 z"
         id="path59"
         style="fill:none;stroke:#7800ff;stroke-width:30;stroke-miterlimit:4;stroke-dasharray:none;stroke-opacity:1"
         inkscape:connector-curvature="0" /></g><g
       id="_1094484384"
       style="stroke:#7800ff;stroke-width:30;stroke-miterlimit:4;stroke-dasharray:none;stroke-opacity:1"><path
         class="fil0 str1"
         d="m 34426,16572 c 161,0 292,128 292,286 0,157 -131,285 -292,285 -154,0 -280,-116 -291,-263 m 4,-77 c 12,-61 44,-115 89,-155 m -2,-3 c -31,12 -65,19 -101,19 -29,0 -57,-5 -83,-13 m -3,3 c 44,38 76,90 89,149 m 5,77 c -10,145 -132,259 -281,259 -156,0 -283,-125 -283,-278 0,-153 127,-278 283,-278 31,0 61,5 89,14 m 0,0 c -60,-51 -98,-127 -98,-211 0,-154 126,-278 282,-278 156,0 282,124 282,278 0,83 -37,158 -97,209 m 0,0 c 36,-15 75,-23 116,-23"
         id="path62"
         style="fill:none;stroke:#7800ff;stroke-width:30;stroke-miterlimit:4;stroke-dasharray:none;stroke-opacity:1"
         inkscape:connector-curvature="0" /><path
         class="fil0 str1"
         d="m 34037,16279 c -48,20 -46,83 -49,194 48,4 53,16 96,20 -13,-145 -7,-236 -47,-214 z"
         id="path64"
         style="fill:none;stroke:#7800ff;stroke-width:30;stroke-miterlimit:4;stroke-dasharray:none;stroke-opacity:1"
         inkscape:connector-curvature="0" /><path
         class="fil0 str1"
         d="m 33762,16747 c -47,20 -44,35 -47,146 8,24 66,35 100,28 -13,-145 -12,-197 -53,-174 z"
         id="path66"
         style="fill:none;stroke:#7800ff;stroke-width:30;stroke-miterlimit:4;stroke-dasharray:none;stroke-opacity:1"
         inkscape:connector-curvature="0" /><path
         class="fil0 str1"
         d="m 34356,16772 c -47,20 -41,128 -26,172 16,24 43,8 86,12 -20,-134 -22,-168 -60,-184 z"
         id="path68"
         style="fill:none;stroke:#7800ff;stroke-width:30;stroke-miterlimit:4;stroke-dasharray:none;stroke-opacity:1"
         inkscape:connector-curvature="0" /></g><path
       class="fil0 str1"
       d="m 22623,12114 c 25,178 -54,282 -216,397"
       id="path71"
       style="fill:none;stroke:#7800ff;stroke-width:30;stroke-miterlimit:4;stroke-dasharray:none;stroke-opacity:1"
       inkscape:connector-curvature="0" /><path
       class="fil0 str1"
       d="m 22808,12201 c 17,135 -39,187 -152,299"
       id="path73"
       style="fill:none;stroke:#7800ff;stroke-width:30;stroke-miterlimit:4;stroke-dasharray:none;stroke-opacity:1"
       inkscape:connector-curvature="0" /><path
       class="fil0 str1"
       d="m 22962,12235 c 15,123 -36,171 -139,273"
       id="path75"
       style="fill:none;stroke:#7800ff;stroke-width:30;stroke-miterlimit:4;stroke-dasharray:none;stroke-opacity:1"
       inkscape:connector-curvature="0" /><path
       class="fil0 str1"
       d="m 23022,12303 c 86,91 31,144 -23,210"
       id="path77"
       style="fill:none;stroke:#7800ff;stroke-width:30;stroke-miterlimit:4;stroke-dasharray:none;stroke-opacity:1"
       inkscape:connector-curvature="0" /><path
       class="fil0 str1"
       d="m 23348,16654 -301,8 c -108,252 -282,351 -507,326 l -5,273 -1208,-8 9,-388 507,-22 13,-261 212,9 c 129,-293 328,-409 586,-379 l -9,-110 287,9 -9,-274 c -143,-38 -255,-115 -322,-247 -281,-14 -271,-302 0,-295 47,-122 148,-206 300,-252 l 424,-17 17,-97 349,-9 8,62 1180,-12 -2,-81 283,-4 -1,109 608,-9 5,-122 322,-9 v -190 l 331,-6 4,-164 379,-2 v 1671 l -377,2 -9,-1524"
       id="path79"
       style="fill:none;stroke:#7800ff;stroke-width:30;stroke-miterlimit:4;stroke-dasharray:none;stroke-opacity:1"
       inkscape:connector-curvature="0" /><polyline
       class="fil0 str1"
       points="26431,16069 26317,16069 26116,16071 26094,14854 "
       id="polyline81"
       style="fill:none;stroke:#7800ff;stroke-width:30;stroke-miterlimit:4;stroke-dasharray:none;stroke-opacity:1" /><polyline
       class="fil0 str1"
       points="26114,15991 25759,15991 25768,14955 "
       id="polyline83"
       style="fill:none;stroke:#7800ff;stroke-width:30;stroke-miterlimit:4;stroke-dasharray:none;stroke-opacity:1" /><polyline
       class="fil0 str1"
       points="25760,15881 25525,15890 25519,15080 25518,14989 "
       id="polyline85"
       style="fill:none;stroke:#7800ff;stroke-width:30;stroke-miterlimit:4;stroke-dasharray:none;stroke-opacity:1" /><polyline
       class="fil0 str1"
       points="25525,15890 25529,16147 25404,16145 "
       id="polyline87"
       style="fill:none;stroke:#7800ff;stroke-width:30;stroke-miterlimit:4;stroke-dasharray:none;stroke-opacity:1" /><polyline
       class="fil0 str1"
       points="22925,15895 23377,15890 23390,14928 "
       id="polyline89"
       style="fill:none;stroke:#7800ff;stroke-width:30;stroke-miterlimit:4;stroke-dasharray:none;stroke-opacity:1" /><line
       class="fil0 str1"
       x1="23699"
       y1="14982"
       x2="23691"
       y2="15730"
       id="line91"
       style="fill:none;stroke:#7800ff;stroke-width:30;stroke-miterlimit:4;stroke-dasharray:none;stroke-opacity:1" /><line
       class="fil0 str1"
       x1="22601"
       y1="15295"
       x2="22601"
       y2="15590"
       id="line93"
       style="fill:none;stroke:#7800ff;stroke-width:30;stroke-miterlimit:4;stroke-dasharray:none;stroke-opacity:1" /><path
       class="fil0 str1"
       d="m 23175,15076 c -3,217 -5,434 -7,651 -201,15 -450,-140 -463,-318 2,-300 237,-330 470,-333 z"
       id="path95"
       style="fill:none;stroke:#7800ff;stroke-width:30;stroke-miterlimit:4;stroke-dasharray:none;stroke-opacity:1"
       inkscape:connector-curvature="0" /><line
       class="fil0 str1"
       x1="25159"
       y1="14994"
       x2="25152"
       y2="15760"
       id="line97"
       style="fill:none;stroke:#7800ff;stroke-width:30;stroke-miterlimit:4;stroke-dasharray:none;stroke-opacity:1" /><line
       class="fil0 str1"
       x1="24879"
       y1="14970"
       x2="24878"
       y2="15589"
       id="line99"
       style="fill:none;stroke:#7800ff;stroke-width:30;stroke-miterlimit:4;stroke-dasharray:none;stroke-opacity:1" /><line
       class="fil0 str1"
       x1="23377"
       y1="15890"
       x2="23536"
       y2="15887"
       id="line101"
       style="fill:none;stroke:#7800ff;stroke-width:30;stroke-miterlimit:4;stroke-dasharray:none;stroke-opacity:1" /><line
       class="fil0 str1"
       x1="25525"
       y1="15890"
       x2="25264"
       y2="15895"
       id="line103"
       style="fill:none;stroke:#7800ff;stroke-width:30;stroke-miterlimit:4;stroke-dasharray:none;stroke-opacity:1" /><ellipse
       class="fil0 str1"
       cx="36391"
       cy="16178"
       rx="1067"
       ry="988"
       id="ellipse105"
       style="fill:none;stroke:#7800ff;stroke-width:30;stroke-miterlimit:4;stroke-dasharray:none;stroke-opacity:1" /><ellipse
       class="fil0 str1"
       cx="36391"
       cy="16178"
       rx="210"
       ry="195"
       id="ellipse107"
       style="fill:none;stroke:#7800ff;stroke-width:30;stroke-miterlimit:4;stroke-dasharray:none;stroke-opacity:1" /><path
       class="fil0 str1"
       d="m 37440,16362 301,7 c 108,252 281,351 507,326 l 4,274 1208,-9 -8,-388 -508,-22 -13,-260 -211,9 c -129,-294 -329,-410 -587,-380 l 9,-110 -287,9 9,-273 c 144,-38 255,-116 322,-247 281,-15 272,-302 0,-296 -47,-122 -147,-205 -300,-251 l -423,-18 -18,-97 -348,-9 -9,62 -1180,-12 3,-81 -284,-4 1,109 -608,-9 -5,-122 -321,-9 -1,-190 -330,-6 -5,-163 -379,-2 v 1671 l 377,1 9,-1523"
       id="path109"
       style="fill:none;stroke:#7800ff;stroke-width:30;stroke-miterlimit:4;stroke-dasharray:none;stroke-opacity:1"
       inkscape:connector-curvature="0" /><polyline
       class="fil0 str1"
       points="34357,15777 34471,15776 34671,15778 34694,14561 "
       id="polyline111"
       style="fill:none;stroke:#7800ff;stroke-width:30;stroke-miterlimit:4;stroke-dasharray:none;stroke-opacity:1" /><polyline
       class="fil0 str1"
       points="34673,15699 35029,15699 35020,14663 "
       id="polyline113"
       style="fill:none;stroke:#7800ff;stroke-width:30;stroke-miterlimit:4;stroke-dasharray:none;stroke-opacity:1" /><polyline
       class="fil0 str1"
       points="35028,15589 35262,15597 35268,14787 35269,14697 "
       id="polyline115"
       style="fill:none;stroke:#7800ff;stroke-width:30;stroke-miterlimit:4;stroke-dasharray:none;stroke-opacity:1" /><polyline
       class="fil0 str1"
       points="35262,15597 35258,15854 35383,15853 "
       id="polyline117"
       style="fill:none;stroke:#7800ff;stroke-width:30;stroke-miterlimit:4;stroke-dasharray:none;stroke-opacity:1" /><polyline
       class="fil0 str1"
       points="37862,15602 37410,15597 37397,14635 "
       id="polyline119"
       style="fill:none;stroke:#7800ff;stroke-width:30;stroke-miterlimit:4;stroke-dasharray:none;stroke-opacity:1" /><line
       class="fil0 str1"
       x1="37088"
       y1="14689"
       x2="37096"
       y2="15437"
       id="line121"
       style="fill:none;stroke:#7800ff;stroke-width:30;stroke-miterlimit:4;stroke-dasharray:none;stroke-opacity:1" /><line
       class="fil0 str1"
       x1="38186"
       y1="15002"
       x2="38186"
       y2="15298"
       id="line123"
       style="fill:none;stroke:#7800ff;stroke-width:30;stroke-miterlimit:4;stroke-dasharray:none;stroke-opacity:1" /><path
       class="fil0 str1"
       d="m 37613,14784 c 2,217 4,433 6,650 201,15 450,-140 463,-317 -2,-300 -237,-331 -469,-333 z"
       id="path125"
       style="fill:none;stroke:#7800ff;stroke-width:30;stroke-miterlimit:4;stroke-dasharray:none;stroke-opacity:1"
       inkscape:connector-curvature="0" /><line
       class="fil0 str1"
       x1="35628"
       y1="14701"
       x2="35635"
       y2="15468"
       id="line127"
       style="fill:none;stroke:#7800ff;stroke-width:30;stroke-miterlimit:4;stroke-dasharray:none;stroke-opacity:1" /><line
       class="fil0 str1"
       x1="35908"
       y1="14677"
       x2="35910"
       y2="15296"
       id="line129"
       style="fill:none;stroke:#7800ff;stroke-width:30;stroke-miterlimit:4;stroke-dasharray:none;stroke-opacity:1" /><line
       class="fil0 str1"
       x1="37410"
       y1="15597"
       x2="37251"
       y2="15594"
       id="line131"
       style="fill:none;stroke:#7800ff;stroke-width:30;stroke-miterlimit:4;stroke-dasharray:none;stroke-opacity:1" /><line
       class="fil0 str1"
       x1="35262"
       y1="15597"
       x2="35524"
       y2="15603"
       id="line133"
       style="fill:none;stroke:#7800ff;stroke-width:30;stroke-miterlimit:4;stroke-dasharray:none;stroke-opacity:1" /><path
       class="fil0 str1"
       d="m 29214,16316 c 701,-1938 -41,-2755 -1340,-3139 1284,-438 2226,-481 2311,458 829,417 682,842 88,1270 33,691 -433,1097 -1059,1411 z"
       id="path135"
       style="fill:none;stroke:#7800ff;stroke-width:30;stroke-miterlimit:4;stroke-dasharray:none;stroke-opacity:1"
       inkscape:connector-curvature="0" /><path
       class="fil0 str1"
       d="m 31113,18733 c -950,-419 -1497,-1080 -1270,-2205 -1292,577 -1369,1328 -591,1720 -42,837 749,824 1861,485 z"
       id="path137"
       style="fill:none;stroke:#7800ff;stroke-width:30;stroke-miterlimit:4;stroke-dasharray:none;stroke-opacity:1"
       inkscape:connector-curvature="0" /><path
       class="fil0 str1"
       d="m 32493,15170 c -1488,-1729 1215,-2491 3475,-2011 249,53 459,57 688,35 1230,-788 2783,-1093 3599,-961 846,137 1469,539 1576,1130 188,1039 -291,2115 -1824,2671 1308,1577 648,2967 -721,3392 -879,273 -2194,-1 -3741,-1099 -1948,625 -3860,1159 -4763,-970 -325,-1190 389,-1845 1711,-2187 z"
       id="path139"
       style="fill:none;stroke:#7800ff;stroke-width:30;stroke-miterlimit:4;stroke-dasharray:none;stroke-opacity:1"
       inkscape:connector-curvature="0" /><path
       class="fil0 str1"
       d="m 41017,16140 c 481,556 279,1245 -150,2187 141,-94 289,-166 430,-260 931,-230 1396,-603 774,-1151 197,-463 25,-690 -542,-776 -171,0 -341,0 -512,0 z"
       id="path141"
       style="fill:none;stroke:#7800ff;stroke-width:30;stroke-miterlimit:4;stroke-dasharray:none;stroke-opacity:1"
       inkscape:connector-curvature="0" /><path
       class="fil0 str1"
       d="m 23940,13291 c -196,440 -998,653 -2010,706 -1013,52 -1687,632 -1864,938 -177,306 -24,852 448,1110 599,326 1577,97 1684,-664 108,-760 -772,-797 -1110,-489 -189,173 -232,292 -156,452 91,191 444,362 440,-138 411,333 -177,808 -558,368 -138,-127 -41,-496 274,-682"
       id="path143"
       style="fill:none;stroke:#7800ff;stroke-width:30;stroke-miterlimit:4;stroke-dasharray:none;stroke-opacity:1"
       inkscape:connector-curvature="0" /><path
       class="fil0 str1"
       d="m 23940,13291 c -52,375 -177,726 -530,829 -466,137 -983,5 -1555,-118 -924,-199 -1593,146 -1789,933 -70,281 62,557 310,751 555,433 1036,402 1385,114 314,-259 9,-1093 -259,-1082"
       id="path145"
       style="fill:none;stroke:#7800ff;stroke-width:30;stroke-miterlimit:4;stroke-dasharray:none;stroke-opacity:1"
       inkscape:connector-curvature="0" /><path
       class="fil0 str1"
       d="m 20066,14935 c -202,535 -209,1031 425,1401 402,212 771,217 1102,-18 292,-162 400,-395 502,-629"
       id="path147"
       style="fill:none;stroke:#7800ff;stroke-width:30;stroke-miterlimit:4;stroke-dasharray:none;stroke-opacity:1"
       inkscape:connector-curvature="0" /><path
       class="fil0 str1"
       d="m 24319,13157 c -12,438 -152,742 -411,921"
       id="path149"
       style="fill:none;stroke:#7800ff;stroke-width:30;stroke-miterlimit:4;stroke-dasharray:none;stroke-opacity:1"
       inkscape:connector-curvature="0" /><path
       class="fil0 str1"
       d="m 24436,13498 c -8,327 -174,551 -367,685"
       id="path151"
       style="fill:none;stroke:#7800ff;stroke-width:30;stroke-miterlimit:4;stroke-dasharray:none;stroke-opacity:1"
       inkscape:connector-curvature="0" /><path
       class="fil0 str1"
       d="m 24527,13812 c -20,254 -167,385 -331,496"
       id="path153"
       style="fill:none;stroke:#7800ff;stroke-width:30;stroke-miterlimit:4;stroke-dasharray:none;stroke-opacity:1"
       inkscape:connector-curvature="0" /><path
       class="fil0 str1"
       d="m 25817,13900 c 217,-132 557,-106 744,-38"
       id="path155"
       style="fill:none;stroke:#7800ff;stroke-width:30;stroke-miterlimit:4;stroke-dasharray:none;stroke-opacity:1"
       inkscape:connector-curvature="0" /><path
       class="fil0 str1"
       d="m 25726,14058 c 267,-92 556,-55 752,-9"
       id="path157"
       style="fill:none;stroke:#7800ff;stroke-width:30;stroke-miterlimit:4;stroke-dasharray:none;stroke-opacity:1"
       inkscape:connector-curvature="0" /><path
       class="fil0 str1"
       d="m 25763,14220 c 236,-71 524,-41 742,6"
       id="path159"
       style="fill:none;stroke:#7800ff;stroke-width:30;stroke-miterlimit:4;stroke-dasharray:none;stroke-opacity:1"
       inkscape:connector-curvature="0" /><path
       class="fil0 str1"
       d="m 22773,18475 c -18,-228 189,-410 425,-393 54,4 107,29 157,84 96,169 57,295 -141,370 147,-217 -432,-458 -441,-61 -9,397 600,286 811,75 212,-212 125,-542 27,-675 -356,-482 -997,-150 -1111,309 -115,458 591,996 1375,811 635,-149 916,-752 1374,-880 491,-137 908,-133 1096,86 -321,-84 -627,-49 -1301,395 -520,343 -904,371 -1169,399 -427,139 -890,275 -1510,-199 -332,-300 -378,-645 -209,-994 187,-387 595,-447 1151,-405 384,56 579,286 555,767 -14,289 -109,481 -326,538 -128,33 -264,24 -396,36 1,0 1,0 2,0"
       id="path161"
       style="fill:none;stroke:#7800ff;stroke-width:30;stroke-miterlimit:4;stroke-dasharray:none;stroke-opacity:1"
       inkscape:connector-curvature="0" /><path
       class="fil0 str1"
       d="m 24149,17798 c 94,212 62,416 -55,652"
       id="path163"
       style="fill:none;stroke:#7800ff;stroke-width:30;stroke-miterlimit:4;stroke-dasharray:none;stroke-opacity:1"
       inkscape:connector-curvature="0" /><path
       class="fil0 str1"
       d="m 24349,17820 c 95,212 100,409 -68,639"
       id="path165"
       style="fill:none;stroke:#7800ff;stroke-width:30;stroke-miterlimit:4;stroke-dasharray:none;stroke-opacity:1"
       inkscape:connector-curvature="0" /><path
       class="fil0 str1"
       d="m 24537,17974 c 79,184 25,279 -58,450"
       id="path167"
       style="fill:none;stroke:#7800ff;stroke-width:30;stroke-miterlimit:4;stroke-dasharray:none;stroke-opacity:1"
       inkscape:connector-curvature="0" /><path
       class="fil0 str1"
       d="m 27114,15153 c 151,-16 267,-99 380,-203 104,-97 241,-150 396,-13 112,98 97,203 -30,269 -152,78 -272,37 -274,-40 -5,-169 127,-171 190,-53"
       id="path169"
       style="fill:none;stroke:#7800ff;stroke-width:30;stroke-miterlimit:4;stroke-dasharray:none;stroke-opacity:1"
       inkscape:connector-curvature="0" /><path
       class="fil0 str1"
       d="m 27637,15359 c 113,-6 228,-38 339,-17 188,34 231,195 159,388 -38,101 -112,175 -207,192 -199,34 -357,-54 -344,-221 13,-164 151,-254 278,-214 168,53 178,199 33,293 -82,53 -148,15 -146,-88"
       id="path171"
       style="fill:none;stroke:#7800ff;stroke-width:30;stroke-miterlimit:4;stroke-dasharray:none;stroke-opacity:1"
       inkscape:connector-curvature="0" /><path
       class="fil0 str1"
       d="m 27906,16045 c -144,25 -246,-17 -278,-98"
       id="path173"
       style="fill:none;stroke:#7800ff;stroke-width:30;stroke-miterlimit:4;stroke-dasharray:none;stroke-opacity:1"
       inkscape:connector-curvature="0" /><path
       class="fil0 str1"
       d="m 27914,16175 c -144,26 -247,4 -280,-77"
       id="path175"
       style="fill:none;stroke:#7800ff;stroke-width:30;stroke-miterlimit:4;stroke-dasharray:none;stroke-opacity:1"
       inkscape:connector-curvature="0" /><path
       class="fil0 str1"
       d="m 27877,16305 c -144,25 -186,13 -218,-67"
       id="path177"
       style="fill:none;stroke:#7800ff;stroke-width:30;stroke-miterlimit:4;stroke-dasharray:none;stroke-opacity:1"
       inkscape:connector-curvature="0" /><path
       class="fil0 str1"
       d="m 29351,17461 c 84,39 119,96 71,149 -24,27 -82,35 -150,9 -71,-26 -121,-106 -76,-232 16,-44 81,-82 125,-96 291,-113 393,548 64,687 -390,165 -1001,-526 63,-842 185,-69 277,-191 238,-390 -318,210 -539,438 -692,677 -63,238 38,388 304,450 124,37 233,54 302,0 244,-191 161,-435 -35,-585 -61,-46 -154,-1 -231,-2"
       id="path179"
       style="fill:none;stroke:#7800ff;stroke-width:30;stroke-miterlimit:4;stroke-dasharray:none;stroke-opacity:1"
       inkscape:connector-curvature="0" /><path
       class="fil0 str1"
       d="m 29494,18131 c 240,15 366,-53 373,-208"
       id="path181"
       style="fill:none;stroke:#7800ff;stroke-width:30;stroke-miterlimit:4;stroke-dasharray:none;stroke-opacity:1"
       inkscape:connector-curvature="0" /><path
       class="fil0 str1"
       d="m 29569,18252 c 224,15 314,-17 328,-134"
       id="path183"
       style="fill:none;stroke:#7800ff;stroke-width:30;stroke-miterlimit:4;stroke-dasharray:none;stroke-opacity:1"
       inkscape:connector-curvature="0" /><path
       class="fil0 str1"
       d="m 29673,18367 c 224,5 268,-30 291,-164"
       id="path185"
       style="fill:none;stroke:#7800ff;stroke-width:30;stroke-miterlimit:4;stroke-dasharray:none;stroke-opacity:1"
       inkscape:connector-curvature="0" /><path
       class="fil0 str1"
       d="m 29524,13715 c 1,170 109,283 203,199 81,-73 82,-215 -62,-340 -81,-70 -191,-50 -286,18 -114,87 -130,221 -102,355 151,346 369,480 679,289 136,-84 212,-248 168,-388 -87,-278 -321,-624 -686,-655 -478,-41 -791,185 -1078,-51 531,-18 1557,-113 1576,675 7,257 -39,388 -275,337 -136,-29 -231,-107 -302,-233 -57,-100 -36,-209 9,-321"
       id="path187"
       style="fill:none;stroke:#7800ff;stroke-width:30;stroke-miterlimit:4;stroke-dasharray:none;stroke-opacity:1"
       inkscape:connector-curvature="0" /><path
       class="fil0 str1"
       d="m 30244,14055 c 10,238 -133,353 -388,379"
       id="path189"
       style="fill:none;stroke:#7800ff;stroke-width:30;stroke-miterlimit:4;stroke-dasharray:none;stroke-opacity:1"
       inkscape:connector-curvature="0" /><path
       class="fil0 str1"
       d="m 30356,14191 c -30,231 -93,249 -321,314"
       id="path191"
       style="fill:none;stroke:#7800ff;stroke-width:30;stroke-miterlimit:4;stroke-dasharray:none;stroke-opacity:1"
       inkscape:connector-curvature="0" /><path
       class="fil0 str1"
       d="m 30487,14272 c -3,175 -98,244 -265,299"
       id="path193"
       style="fill:none;stroke:#7800ff;stroke-width:30;stroke-miterlimit:4;stroke-dasharray:none;stroke-opacity:1"
       inkscape:connector-curvature="0" /><path
       class="fil0 str1"
       d="m 33439,14797 c -113,-275 -89,-573 -61,-900 17,-205 -131,-301 -309,-251 -179,50 -224,244 -119,454 55,111 178,114 229,70 138,-116 78,-261 -40,-317 -106,-51 -127,129 -35,203"
       id="path195"
       style="fill:none;stroke:#7800ff;stroke-width:30;stroke-miterlimit:4;stroke-dasharray:none;stroke-opacity:1"
       inkscape:connector-curvature="0" /><path
       class="fil0 str1"
       d="m 33231,14272 c -195,47 -190,14 -447,-85 -176,-69 -248,105 -233,250 36,352 560,263 422,18 -89,-157 -209,-150 -257,-79 -66,97 41,208 130,131"
       id="path197"
       style="fill:none;stroke:#7800ff;stroke-width:30;stroke-miterlimit:4;stroke-dasharray:none;stroke-opacity:1"
       inkscape:connector-curvature="0" /><path
       class="fil0 str1"
       d="m 32178,17011 c 58,-5 142,-8 203,14 61,22 98,68 62,163 -15,38 -42,77 -83,107 -40,30 -95,52 -164,56 -128,7 -224,-40 -283,-116 -58,-76 -80,-181 -61,-290 35,-199 127,-360 281,-442 154,-82 370,-85 654,32 103,43 210,107 293,197 82,89 140,205 143,350 8,319 -73,562 -210,733 -137,172 -330,273 -548,307 -421,68 -788,-18 -1036,-235 -248,-218 -377,-568 -322,-1030 37,-313 211,-559 463,-738 252,-179 583,-290 934,-334 223,-27 433,-89 631,-184 198,-94 433,-179 560,-380 -425,187 -576,228 -1213,348 -559,106 -983,362 -1151,878 -186,572 1,858 234,1080 268,256 574,407 913,349 316,-55 475,-246 547,-552 77,-328 -36,-570 -238,-789"
       id="path199"
       style="fill:none;stroke:#7800ff;stroke-width:30;stroke-miterlimit:4;stroke-dasharray:none;stroke-opacity:1"
       inkscape:connector-curvature="0" /><path
       class="fil0 str1"
       d="m 31857,17120 c 24,-374 607,-557 811,-272 213,299 110,693 -203,759 -919,192 -1060,-544 -1134,-1160"
       id="path201"
       style="fill:none;stroke:#7800ff;stroke-width:30;stroke-miterlimit:4;stroke-dasharray:none;stroke-opacity:1"
       inkscape:connector-curvature="0" /><path
       class="fil0 str1"
       d="m 32712,18209 c 238,55 407,-105 551,-339"
       id="path203"
       style="fill:none;stroke:#7800ff;stroke-width:30;stroke-miterlimit:4;stroke-dasharray:none;stroke-opacity:1"
       inkscape:connector-curvature="0" /><path
       class="fil0 str1"
       d="m 32771,18388 c 243,28 372,-64 443,-251"
       id="path205"
       style="fill:none;stroke:#7800ff;stroke-width:30;stroke-miterlimit:4;stroke-dasharray:none;stroke-opacity:1"
       inkscape:connector-curvature="0" /><path
       class="fil0 str1"
       d="m 35538,17943 c 292,-393 1028,-270 1605,8 656,317 1160,968 1870,1129 405,92 894,-126 1164,-441 623,-726 171,-1346 -405,-1464 -439,-89 -1018,-95 -1367,80 -474,236 -461,851 -80,1120 229,161 559,196 829,123 157,-42 294,-256 256,-414 -36,-147 -189,-204 -339,-221 -83,-9 -242,52 -251,147 -16,183 142,180 246,118"
       id="path207"
       style="fill:none;stroke:#7800ff;stroke-width:30;stroke-miterlimit:4;stroke-dasharray:none;stroke-opacity:1"
       inkscape:connector-curvature="0" /><path
       class="fil0 str1"
       d="m 36516,17734 c 564,290 1003,757 1483,1148 273,222 692,136 1038,203 7,2 -16,-3 -24,-5"
       id="path209"
       style="fill:none;stroke:#7800ff;stroke-width:30;stroke-miterlimit:4;stroke-dasharray:none;stroke-opacity:1"
       inkscape:connector-curvature="0" /><path
       class="fil0 str1"
       d="m 38324,18764 c 295,98 699,218 971,43 312,-201 506,-553 521,-924 10,-273 -341,-739 -609,-768"
       id="path211"
       style="fill:none;stroke:#7800ff;stroke-width:30;stroke-miterlimit:4;stroke-dasharray:none;stroke-opacity:1"
       inkscape:connector-curvature="0" /><path
       class="fil0 str1"
       d="m 39852,18910 c 696,-485 229,-1585 -240,-1762"
       id="path213"
       style="fill:none;stroke:#7800ff;stroke-width:30;stroke-miterlimit:4;stroke-dasharray:none;stroke-opacity:1"
       inkscape:connector-curvature="0" /><path
       class="fil0 str1"
       d="m 39384,18280 c -114,165 -521,198 -706,52 -386,-306 -332,-647 -128,-953 121,-180 398,-257 657,-264"
       id="path215"
       style="fill:none;stroke:#7800ff;stroke-width:30;stroke-miterlimit:4;stroke-dasharray:none;stroke-opacity:1"
       inkscape:connector-curvature="0" /><path
       class="fil0 str1"
       d="m 34258,18074 c 192,-131 603,-377 675,-565"
       id="path217"
       style="fill:none;stroke:#7800ff;stroke-width:30;stroke-miterlimit:4;stroke-dasharray:none;stroke-opacity:1"
       inkscape:connector-curvature="0" /><path
       class="fil0 str1"
       d="m 34622,18007 c 99,-67 292,-161 392,-303 165,-234 442,-266 479,-321"
       id="path219"
       style="fill:none;stroke:#7800ff;stroke-width:30;stroke-miterlimit:4;stroke-dasharray:none;stroke-opacity:1"
       inkscape:connector-curvature="0" /><path
       class="fil0 str1"
       d="m 34957,18014 c 192,-131 504,-401 786,-487"
       id="path221"
       style="fill:none;stroke:#7800ff;stroke-width:30;stroke-miterlimit:4;stroke-dasharray:none;stroke-opacity:1"
       inkscape:connector-curvature="0" /><path
       class="fil0 str1"
       d="m 40285,17201 c -91,-194 -226,-277 -416,-294"
       id="path223"
       style="fill:none;stroke:#7800ff;stroke-width:30;stroke-miterlimit:4;stroke-dasharray:none;stroke-opacity:1"
       inkscape:connector-curvature="0" /><path
       class="fil0 str1"
       d="m 35714,14009 c 52,133 218,204 513,164"
       id="path225"
       style="fill:none;stroke:#7800ff;stroke-width:30;stroke-miterlimit:4;stroke-dasharray:none;stroke-opacity:1"
       inkscape:connector-curvature="0" /><path
       class="fil0 str1"
       d="m 35618,14185 c 118,182 264,238 457,185"
       id="path227"
       style="fill:none;stroke:#7800ff;stroke-width:30;stroke-miterlimit:4;stroke-dasharray:none;stroke-opacity:1"
       inkscape:connector-curvature="0" /><path
       class="fil0 str1"
       d="m 35792,13764 c 120,212 336,318 530,265"
       id="path229"
       style="fill:none;stroke:#7800ff;stroke-width:30;stroke-miterlimit:4;stroke-dasharray:none;stroke-opacity:1"
       inkscape:connector-curvature="0" /><path
       class="fil0 str1"
       d="m 39128,15098 c 117,127 335,236 632,223"
       id="path231"
       style="fill:none;stroke:#7800ff;stroke-width:30;stroke-miterlimit:4;stroke-dasharray:none;stroke-opacity:1"
       inkscape:connector-curvature="0" /><path
       class="fil0 str1"
       d="m 39129,15365 c 158,127 361,171 558,127"
       id="path233"
       style="fill:none;stroke:#7800ff;stroke-width:30;stroke-miterlimit:4;stroke-dasharray:none;stroke-opacity:1"
       inkscape:connector-curvature="0" /><path
       class="fil0 str1"
       d="m 36626,13862 c 318,-55 665,-21 953,-167 462,-235 734,-810 1235,-944 1050,-282 1931,-99 2037,697 72,541 -118,1233 -573,1534 -388,256 -957,-32 -1314,-361 -300,-276 -235,-767 123,-1058 245,-200 645,-182 944,-80 433,149 659,549 335,805 -107,85 -226,131 -357,95 -178,-49 -161,-259 -102,-318 57,-57 152,-50 238,44"
       id="path235"
       style="fill:none;stroke:#7800ff;stroke-width:30;stroke-miterlimit:4;stroke-dasharray:none;stroke-opacity:1"
       inkscape:connector-curvature="0" /><path
       class="fil0 str1"
       d="m 37888,13475 c 288,-284 935,-560 1212,-600 639,-93 881,-15 1475,237 384,164 621,607 642,1024 16,328 -158,603 -388,780 -219,169 -574,169 -877,164"
       id="path237"
       style="fill:none;stroke:#7800ff;stroke-width:30;stroke-miterlimit:4;stroke-dasharray:none;stroke-opacity:1"
       inkscape:connector-curvature="0" /><path
       class="fil0 str1"
       d="m 41649,17430 c 19,-85 108,-221 194,-128 62,67 0,223 -84,260 -179,80 -319,-42 -312,-151 13,-190 239,-342 427,-316 164,22 361,259 212,450 -215,274 -783,149 -926,502 263,-186 623,-283 789,-560 76,-126 69,-431 -225,-379"
       id="path239"
       style="fill:none;stroke:#7800ff;stroke-width:30;stroke-miterlimit:4;stroke-dasharray:none;stroke-opacity:1"
       inkscape:connector-curvature="0" /><path
       class="fil0 str1"
       d="m 41913,16975 c -106,-67 -268,-23 -427,62"
       id="path241"
       style="fill:none;stroke:#7800ff;stroke-width:30;stroke-miterlimit:4;stroke-dasharray:none;stroke-opacity:1"
       inkscape:connector-curvature="0" /><path
       class="fil0 str1"
       d="m 41877,16856 c -95,-61 -250,-64 -380,-27"
       id="path243"
       style="fill:none;stroke:#7800ff;stroke-width:30;stroke-miterlimit:4;stroke-dasharray:none;stroke-opacity:1"
       inkscape:connector-curvature="0" /><path
       class="fil0 str1"
       d="m 41921,16726 c -106,-67 -164,-89 -327,-64"
       id="path245"
       style="fill:none;stroke:#7800ff;stroke-width:30;stroke-miterlimit:4;stroke-dasharray:none;stroke-opacity:1"
       inkscape:connector-curvature="0" /><path
       class="fil0 str1"
       d="m 41994,16660 c -67,-110 -240,-204 -402,-135"
       id="path247"
       style="fill:none;stroke:#7800ff;stroke-width:30;stroke-miterlimit:4;stroke-dasharray:none;stroke-opacity:1"
       inkscape:connector-curvature="0" /><rect
       class="fil0 str1"
       x="18602"
       y="5960"
       width="24906"
       height="14817"
       rx="950"
       ry="1075"
       id="rect249"
       style="fill:none;stroke:#7800ff;stroke-width:30;stroke-miterlimit:4;stroke-dasharray:none;stroke-opacity:1" /><rect
       class="fil0 str1"
       x="17809"
       y="4954"
       width="26494"
       height="16827"
       rx="1547"
       ry="1870"
       id="rect251"
       style="fill:none;stroke:#7800ff;stroke-width:30;stroke-miterlimit:4;stroke-dasharray:none;stroke-opacity:1" /></g></svg>