<?xml version="1.0" encoding="UTF-8" standalone="no"?>
<svg
   xmlns:dc="http://purl.org/dc/elements/1.1/"
   xmlns:cc="http://creativecommons.org/ns#"
   xmlns:rdf="http://www.w3.org/1999/02/22-rdf-syntax-ns#"
   xmlns:svg="http://www.w3.org/2000/svg"
   xmlns="http://www.w3.org/2000/svg"
   xmlns:sodipodi="http://sodipodi.sourceforge.net/DTD/sodipodi-0.dtd"
   xmlns:inkscape="http://www.inkscape.org/namespaces/inkscape"
   xml:space="preserve"
   width="248mm"
   height="173mm"
   version="1.1"
   style="clip-rule:evenodd;fill-rule:evenodd;image-rendering:optimizeQuality;shape-rendering:geometricPrecision;text-rendering:geometricPrecision"
   viewBox="0 0 24800 17300"
   id="svg359"
   sodipodi:docname="game_chips.svg"
   inkscape:version="0.92.1 r15371"><metadata
     id="metadata363"><rdf:RDF><cc:Work
         rdf:about=""><dc:format>image/svg+xml</dc:format><dc:type
           rdf:resource="http://purl.org/dc/dcmitype/StillImage" /><dc:title></dc:title></cc:Work></rdf:RDF></metadata><sodipodi:namedview
     pagecolor="#ffffff"
     bordercolor="#666666"
     borderopacity="1"
     objecttolerance="10"
     gridtolerance="10"
     guidetolerance="10"
     inkscape:pageopacity="0"
     inkscape:pageshadow="2"
     inkscape:window-width="1143"
     inkscape:window-height="676"
     id="namedview361"
     showgrid="false"
     inkscape:zoom="0.42506546"
     inkscape:cx="515.59166"
     inkscape:cy="373.50005"
     inkscape:window-x="0"
     inkscape:window-y="56"
     inkscape:window-maximized="0"
     inkscape:current-layer="svg359" /><defs
     id="defs4"><style
       type="text/css"
       id="style2"><![CDATA[
    .str1 {stroke:#2B2A29;stroke-width:7.62}
    .str2 {stroke:#E31E24;stroke-width:7.62}
    .str0 {stroke:#088CA2;stroke-width:7.62}
    .fil0 {fill:none}
   ]]></style></defs><g
     id="Слой_x0020_1"
     style="stroke-width:30;stroke-miterlimit:4;stroke-dasharray:none"
     transform="translate(-2970,-3689.9997)"><path
       class="fil0 str0"
       d="m 3649,4070 h 1400 c 110,0 200,90 200,200 v 1710 h -500 v 58 c 16,25 25,55 25,87 0,32 -9,61 -25,86 v 59 c -264,0 -536,0 -800,0 v -59 c -16,-25 -25,-54 -25,-86 0,-32 9,-62 25,-87 v -58 H 3449 V 4270 c 0,-110 90,-200 200,-200 z"
       id="path6"
       style="fill:none;stroke:#088ca2;stroke-width:30;stroke-miterlimit:4;stroke-dasharray:none"
       inkscape:connector-curvature="0" /><path
       class="fil0 str0"
       d="m 5849,4070 h 1400 c 110,0 200,90 200,200 v 1710 h -500 v 58 c 16,25 25,55 25,87 0,32 -9,61 -25,86 v 59 c -264,0 -536,0 -800,0 v -59 c -16,-25 -25,-54 -25,-86 0,-32 9,-62 25,-87 v -58 H 5649 V 4270 c 0,-110 90,-200 200,-200 z"
       id="path8"
       style="fill:none;stroke:#088ca2;stroke-width:30;stroke-miterlimit:4;stroke-dasharray:none"
       inkscape:connector-curvature="0" /><path
       class="fil0 str0"
       d="m 8049,4070 h 1400 c 110,0 200,90 200,200 v 1710 h -500 v 58 c 16,25 25,55 25,87 0,32 -9,61 -25,86 v 59 c -264,0 -536,0 -800,0 v -59 c -16,-25 -25,-54 -25,-86 0,-32 9,-62 25,-87 v -58 H 7849 V 4270 c 0,-110 90,-200 200,-200 z"
       id="path10"
       style="fill:none;stroke:#088ca2;stroke-width:30;stroke-miterlimit:4;stroke-dasharray:none"
       inkscape:connector-curvature="0" /><path
       class="fil0 str0"
       d="m 10249,4070 h 1400 c 110,0 200,90 200,200 v 1710 h -500 v 58 c 16,25 25,55 25,87 0,32 -9,61 -25,86 v 59 c -264,0 -536,0 -800,0 v -59 c -16,-25 -25,-54 -25,-86 0,-32 9,-62 25,-87 v -58 h -500 V 4270 c 0,-110 90,-200 200,-200 z"
       id="path12"
       style="fill:none;stroke:#088ca2;stroke-width:30;stroke-miterlimit:4;stroke-dasharray:none"
       inkscape:connector-curvature="0" /><path
       class="fil0 str0"
       d="m 12449,4070 h 1400 c 110,0 200,90 200,200 v 1710 h -500 v 58 c 16,25 25,55 25,87 0,32 -9,61 -25,86 v 59 c -264,0 -536,0 -800,0 v -59 c -16,-25 -25,-54 -25,-86 0,-32 9,-62 25,-87 v -58 h -500 V 4270 c 0,-110 90,-200 200,-200 z"
       id="path14"
       style="fill:none;stroke:#088ca2;stroke-width:30;stroke-miterlimit:4;stroke-dasharray:none"
       inkscape:connector-curvature="0" /><path
       class="fil0 str0"
       d="m 14649,4070 h 1400 c 110,0 200,90 200,200 v 1710 h -500 v 58 c 16,25 25,55 25,87 0,32 -9,61 -25,86 v 59 c -264,0 -536,0 -800,0 v -59 c -16,-25 -25,-54 -25,-86 0,-32 9,-62 25,-87 v -58 h -500 V 4270 c 0,-110 90,-200 200,-200 z"
       id="path16"
       style="fill:none;stroke:#088ca2;stroke-width:30;stroke-miterlimit:4;stroke-dasharray:none"
       inkscape:connector-curvature="0" /><path
       class="fil0 str0"
       d="m 16849,4070 h 1400 c 110,0 200,90 200,200 v 1710 h -500 v 58 c 16,25 25,55 25,87 0,32 -9,61 -25,86 v 59 c -264,0 -536,0 -800,0 v -59 c -16,-25 -25,-54 -25,-86 0,-32 9,-62 25,-87 v -58 h -500 V 4270 c 0,-110 90,-200 200,-200 z"
       id="path18"
       style="fill:none;stroke:#088ca2;stroke-width:30;stroke-miterlimit:4;stroke-dasharray:none"
       inkscape:connector-curvature="0" /><path
       class="fil0 str0"
       d="m 19049,4070 h 1400 c 110,0 200,90 200,200 v 1710 h -500 v 58 c 16,25 25,55 25,87 0,32 -9,61 -25,86 v 59 c -264,0 -536,0 -800,0 v -59 c -16,-25 -25,-54 -25,-86 0,-32 9,-62 25,-87 v -58 h -500 V 4270 c 0,-110 90,-200 200,-200 z"
       id="path20"
       style="fill:none;stroke:#088ca2;stroke-width:30;stroke-miterlimit:4;stroke-dasharray:none"
       inkscape:connector-curvature="0" /><path
       class="fil0 str0"
       d="m 21249,4070 h 1400 c 110,0 200,90 200,200 v 1710 h -500 v 58 c 16,25 25,55 25,87 0,32 -9,61 -25,86 v 59 c -264,0 -536,0 -800,0 v -59 c -16,-25 -25,-54 -25,-86 0,-32 9,-62 25,-87 v -58 h -500 V 4270 c 0,-110 90,-200 200,-200 z"
       id="path22"
       style="fill:none;stroke:#088ca2;stroke-width:30;stroke-miterlimit:4;stroke-dasharray:none"
       inkscape:connector-curvature="0" /><path
       class="fil0 str0"
       d="m 23449,4070 h 1400 c 110,0 200,90 200,200 v 1710 h -500 v 58 c 16,25 25,55 25,87 0,32 -9,61 -25,86 v 59 c -264,0 -536,0 -800,0 v -59 c -16,-25 -25,-54 -25,-86 0,-32 9,-62 25,-87 v -58 h -500 V 4270 c 0,-110 90,-200 200,-200 z"
       id="path24"
       style="fill:none;stroke:#088ca2;stroke-width:30;stroke-miterlimit:4;stroke-dasharray:none"
       inkscape:connector-curvature="0" /><path
       class="fil0 str0"
       d="m 25649,4070 h 1400 c 110,0 200,90 200,200 v 1710 h -500 v 58 c 16,25 25,55 25,87 0,32 -9,61 -25,86 v 59 c -264,0 -536,0 -800,0 v -59 c -16,-25 -25,-54 -25,-86 0,-32 9,-62 25,-87 v -58 h -500 V 4270 c 0,-110 90,-200 200,-200 z"
       id="path26"
       style="fill:none;stroke:#088ca2;stroke-width:30;stroke-miterlimit:4;stroke-dasharray:none"
       inkscape:connector-curvature="0" /><path
       class="fil0 str0"
       d="m 3649,8270 h 1400 c 110,0 200,90 200,200 v 1710 h -500 v 58 c 16,25 25,55 25,87 0,32 -9,61 -25,86 v 59 c -264,0 -536,0 -800,0 v -59 c -16,-25 -25,-54 -25,-86 0,-32 9,-62 25,-87 v -58 H 3449 V 8470 c 0,-110 90,-200 200,-200 z"
       id="path28"
       style="fill:none;stroke:#088ca2;stroke-width:30;stroke-miterlimit:4;stroke-dasharray:none"
       inkscape:connector-curvature="0" /><path
       class="fil0 str0"
       d="m 5849,8270 h 1400 c 110,0 200,90 200,200 v 1710 h -500 v 58 c 16,25 25,55 25,87 0,32 -9,61 -25,86 v 59 c -264,0 -536,0 -800,0 v -59 c -16,-25 -25,-54 -25,-86 0,-32 9,-62 25,-87 v -58 H 5649 V 8470 c 0,-110 90,-200 200,-200 z"
       id="path30"
       style="fill:none;stroke:#088ca2;stroke-width:30;stroke-miterlimit:4;stroke-dasharray:none"
       inkscape:connector-curvature="0" /><path
       class="fil0 str0"
       d="m 8049,8270 h 1400 c 110,0 200,90 200,200 v 1710 h -500 v 58 c 16,25 25,55 25,87 0,32 -9,61 -25,86 v 59 c -264,0 -536,0 -800,0 v -59 c -16,-25 -25,-54 -25,-86 0,-32 9,-62 25,-87 v -58 H 7849 V 8470 c 0,-110 90,-200 200,-200 z"
       id="path32"
       style="fill:none;stroke:#088ca2;stroke-width:30;stroke-miterlimit:4;stroke-dasharray:none"
       inkscape:connector-curvature="0" /><path
       class="fil0 str0"
       d="m 10249,8270 h 1400 c 110,0 200,90 200,200 v 1710 h -500 v 58 c 16,25 25,55 25,87 0,32 -9,61 -25,86 v 59 c -264,0 -536,0 -800,0 v -59 c -16,-25 -25,-54 -25,-86 0,-32 9,-62 25,-87 v -58 h -500 V 8470 c 0,-110 90,-200 200,-200 z"
       id="path34"
       style="fill:none;stroke:#088ca2;stroke-width:30;stroke-miterlimit:4;stroke-dasharray:none"
       inkscape:connector-curvature="0" /><path
       class="fil0 str0"
       d="m 12449,8270 h 1400 c 110,0 200,90 200,200 v 1710 h -500 v 58 c 16,25 25,55 25,87 0,32 -9,61 -25,86 v 59 c -264,0 -536,0 -800,0 v -59 c -16,-25 -25,-54 -25,-86 0,-32 9,-62 25,-87 v -58 h -500 V 8470 c 0,-110 90,-200 200,-200 z"
       id="path36"
       style="fill:none;stroke:#088ca2;stroke-width:30;stroke-miterlimit:4;stroke-dasharray:none"
       inkscape:connector-curvature="0" /><path
       class="fil0 str0"
       d="m 14649,8270 h 1400 c 110,0 200,90 200,200 v 1710 h -500 v 58 c 16,25 25,55 25,87 0,32 -9,61 -25,86 v 59 c -264,0 -536,0 -800,0 v -59 c -16,-25 -25,-54 -25,-86 0,-32 9,-62 25,-87 v -58 h -500 V 8470 c 0,-110 90,-200 200,-200 z"
       id="path38"
       style="fill:none;stroke:#088ca2;stroke-width:30;stroke-miterlimit:4;stroke-dasharray:none"
       inkscape:connector-curvature="0" /><path
       class="fil0 str0"
       d="m 16849,8270 h 1400 c 110,0 200,90 200,200 v 1710 h -500 v 58 c 16,25 25,55 25,87 0,32 -9,61 -25,86 v 59 c -264,0 -536,0 -800,0 v -59 c -16,-25 -25,-54 -25,-86 0,-32 9,-62 25,-87 v -58 h -500 V 8470 c 0,-110 90,-200 200,-200 z"
       id="path40"
       style="fill:none;stroke:#088ca2;stroke-width:30;stroke-miterlimit:4;stroke-dasharray:none"
       inkscape:connector-curvature="0" /><path
       class="fil0 str0"
       d="m 19049,8270 h 1400 c 110,0 200,90 200,200 v 1710 h -500 v 58 c 16,25 25,55 25,87 0,32 -9,61 -25,86 v 59 c -264,0 -536,0 -800,0 v -59 c -16,-25 -25,-54 -25,-86 0,-32 9,-62 25,-87 v -58 h -500 V 8470 c 0,-110 90,-200 200,-200 z"
       id="path42"
       style="fill:none;stroke:#088ca2;stroke-width:30;stroke-miterlimit:4;stroke-dasharray:none"
       inkscape:connector-curvature="0" /><path
       class="fil0 str0"
       d="m 21249,8270 h 1400 c 110,0 200,90 200,200 v 1710 h -500 v 58 c 16,25 25,55 25,87 0,32 -9,61 -25,86 v 59 c -264,0 -536,0 -800,0 v -59 c -16,-25 -25,-54 -25,-86 0,-32 9,-62 25,-87 v -58 h -500 V 8470 c 0,-110 90,-200 200,-200 z"
       id="path44"
       style="fill:none;stroke:#088ca2;stroke-width:30;stroke-miterlimit:4;stroke-dasharray:none"
       inkscape:connector-curvature="0" /><path
       class="fil0 str0"
       d="m 23449,8270 h 1400 c 110,0 200,90 200,200 v 1710 h -500 v 58 c 16,25 25,55 25,87 0,32 -9,61 -25,86 v 59 c -264,0 -536,0 -800,0 v -59 c -16,-25 -25,-54 -25,-86 0,-32 9,-62 25,-87 v -58 h -500 V 8470 c 0,-110 90,-200 200,-200 z"
       id="path46"
       style="fill:none;stroke:#088ca2;stroke-width:30;stroke-miterlimit:4;stroke-dasharray:none"
       inkscape:connector-curvature="0" /><path
       class="fil0 str0"
       d="m 25649,8270 h 1400 c 110,0 200,90 200,200 v 1710 h -500 v 58 c 16,25 25,55 25,87 0,32 -9,61 -25,86 v 59 c -264,0 -536,0 -800,0 v -59 c -16,-25 -25,-54 -25,-86 0,-32 9,-62 25,-87 v -58 h -500 V 8470 c 0,-110 90,-200 200,-200 z"
       id="path48"
       style="fill:none;stroke:#088ca2;stroke-width:30;stroke-miterlimit:4;stroke-dasharray:none"
       inkscape:connector-curvature="0" /><path
       class="fil0 str0"
       d="m 3649,12470 h 1400 c 110,0 200,90 200,200 v 1710 h -500 v 58 c 16,25 25,55 25,87 0,32 -9,61 -25,86 v 59 c -264,0 -536,0 -800,0 v -59 c -16,-25 -25,-54 -25,-86 0,-32 9,-62 25,-87 v -58 h -500 v -1710 c 0,-110 90,-200 200,-200 z"
       id="path50"
       style="fill:none;stroke:#088ca2;stroke-width:30;stroke-miterlimit:4;stroke-dasharray:none"
       inkscape:connector-curvature="0" /><path
       class="fil0 str0"
       d="m 5849,12470 h 1400 c 110,0 200,90 200,200 v 1710 h -500 v 58 c 16,25 25,55 25,87 0,32 -9,61 -25,86 v 59 c -264,0 -536,0 -800,0 v -59 c -16,-25 -25,-54 -25,-86 0,-32 9,-62 25,-87 v -58 h -500 v -1710 c 0,-110 90,-200 200,-200 z"
       id="path52"
       style="fill:none;stroke:#088ca2;stroke-width:30;stroke-miterlimit:4;stroke-dasharray:none"
       inkscape:connector-curvature="0" /><path
       class="fil0 str0"
       d="m 8049,12470 h 1400 c 110,0 200,90 200,200 v 1710 h -500 v 58 c 16,25 25,55 25,87 0,32 -9,61 -25,86 v 59 c -264,0 -536,0 -800,0 v -59 c -16,-25 -25,-54 -25,-86 0,-32 9,-62 25,-87 v -58 h -500 v -1710 c 0,-110 90,-200 200,-200 z"
       id="path54"
       style="fill:none;stroke:#088ca2;stroke-width:30;stroke-miterlimit:4;stroke-dasharray:none"
       inkscape:connector-curvature="0" /><path
       class="fil0 str0"
       d="m 10249,12470 h 1400 c 110,0 200,90 200,200 v 1710 h -500 v 58 c 16,25 25,55 25,87 0,32 -9,61 -25,86 v 59 c -264,0 -536,0 -800,0 v -59 c -16,-25 -25,-54 -25,-86 0,-32 9,-62 25,-87 v -58 h -500 v -1710 c 0,-110 90,-200 200,-200 z"
       id="path56"
       style="fill:none;stroke:#088ca2;stroke-width:30;stroke-miterlimit:4;stroke-dasharray:none"
       inkscape:connector-curvature="0" /><path
       class="fil0 str0"
       d="m 12449,12470 h 1400 c 110,0 200,90 200,200 v 1710 h -500 v 58 c 16,25 25,55 25,87 0,32 -9,61 -25,86 v 59 c -264,0 -536,0 -800,0 v -59 c -16,-25 -25,-54 -25,-86 0,-32 9,-62 25,-87 v -58 h -500 v -1710 c 0,-110 90,-200 200,-200 z"
       id="path58"
       style="fill:none;stroke:#088ca2;stroke-width:30;stroke-miterlimit:4;stroke-dasharray:none"
       inkscape:connector-curvature="0" /><path
       class="fil0 str0"
       d="m 14649,12470 h 1400 c 110,0 200,90 200,200 v 1710 h -500 v 58 c 16,25 25,55 25,87 0,32 -9,61 -25,86 v 59 c -264,0 -536,0 -800,0 v -59 c -16,-25 -25,-54 -25,-86 0,-32 9,-62 25,-87 v -58 h -500 v -1710 c 0,-110 90,-200 200,-200 z"
       id="path60"
       style="fill:none;stroke:#088ca2;stroke-width:30;stroke-miterlimit:4;stroke-dasharray:none"
       inkscape:connector-curvature="0" /><path
       class="fil0 str0"
       d="m 16849,12470 h 1400 c 110,0 200,90 200,200 v 1710 h -500 v 58 c 16,25 25,55 25,87 0,32 -9,61 -25,86 v 59 c -264,0 -536,0 -800,0 v -59 c -16,-25 -25,-54 -25,-86 0,-32 9,-62 25,-87 v -58 h -500 v -1710 c 0,-110 90,-200 200,-200 z"
       id="path62"
       style="fill:none;stroke:#088ca2;stroke-width:30;stroke-miterlimit:4;stroke-dasharray:none"
       inkscape:connector-curvature="0" /><path
       class="fil0 str0"
       d="m 19049,12470 h 1400 c 110,0 200,90 200,200 v 1710 h -500 v 58 c 16,25 25,55 25,87 0,32 -9,61 -25,86 v 59 c -264,0 -536,0 -800,0 v -59 c -16,-25 -25,-54 -25,-86 0,-32 9,-62 25,-87 v -58 h -500 v -1710 c 0,-110 90,-200 200,-200 z"
       id="path64"
       style="fill:none;stroke:#088ca2;stroke-width:30;stroke-miterlimit:4;stroke-dasharray:none"
       inkscape:connector-curvature="0" /><path
       class="fil0 str0"
       d="m 21249,12470 h 1400 c 110,0 200,90 200,200 v 1710 h -500 v 58 c 16,25 25,55 25,87 0,32 -9,61 -25,86 v 59 c -264,0 -536,0 -800,0 v -59 c -16,-25 -25,-54 -25,-86 0,-32 9,-62 25,-87 v -58 h -500 v -1710 c 0,-110 90,-200 200,-200 z"
       id="path66"
       style="fill:none;stroke:#088ca2;stroke-width:30;stroke-miterlimit:4;stroke-dasharray:none"
       inkscape:connector-curvature="0" /><path
       class="fil0 str0"
       d="m 23449,12470 h 1400 c 110,0 200,90 200,200 v 1710 h -500 v 58 c 16,25 25,55 25,87 0,32 -9,61 -25,86 v 59 c -264,0 -536,0 -800,0 v -59 c -16,-25 -25,-54 -25,-86 0,-32 9,-62 25,-87 v -58 h -500 v -1710 c 0,-110 90,-200 200,-200 z"
       id="path68"
       style="fill:none;stroke:#088ca2;stroke-width:30;stroke-miterlimit:4;stroke-dasharray:none"
       inkscape:connector-curvature="0" /><path
       class="fil0 str0"
       d="m 25649,12470 h 1400 c 110,0 200,90 200,200 v 1710 h -500 v 58 c 16,25 25,55 25,87 0,32 -9,61 -25,86 v 59 c -264,0 -536,0 -800,0 v -59 c -16,-25 -25,-54 -25,-86 0,-32 9,-62 25,-87 v -58 h -500 v -1710 c 0,-110 90,-200 200,-200 z"
       id="path70"
       style="fill:none;stroke:#088ca2;stroke-width:30;stroke-miterlimit:4;stroke-dasharray:none"
       inkscape:connector-curvature="0" /><path
       class="fil0 str0"
       d="m 3649,16670 h 1400 c 110,0 200,90 200,200 v 1710 h -500 v 58 c 16,25 25,55 25,87 0,32 -9,61 -25,86 v 59 c -264,0 -536,0 -800,0 v -59 c -16,-25 -25,-54 -25,-86 0,-32 9,-62 25,-87 v -58 h -500 v -1710 c 0,-110 90,-200 200,-200 z"
       id="path72"
       style="fill:none;stroke:#088ca2;stroke-width:30;stroke-miterlimit:4;stroke-dasharray:none"
       inkscape:connector-curvature="0" /><path
       class="fil0 str0"
       d="m 5849,16670 h 1400 c 110,0 200,90 200,200 v 1710 h -500 v 58 c 16,25 25,55 25,87 0,32 -9,61 -25,86 v 59 c -264,0 -536,0 -800,0 v -59 c -16,-25 -25,-54 -25,-86 0,-32 9,-62 25,-87 v -58 h -500 v -1710 c 0,-110 90,-200 200,-200 z"
       id="path74"
       style="fill:none;stroke:#088ca2;stroke-width:30;stroke-miterlimit:4;stroke-dasharray:none"
       inkscape:connector-curvature="0" /><path
       class="fil0 str0"
       d="m 8049,16670 h 1400 c 110,0 200,90 200,200 v 1710 h -500 v 58 c 16,25 25,55 25,87 0,32 -9,61 -25,86 v 59 c -264,0 -536,0 -800,0 v -59 c -16,-25 -25,-54 -25,-86 0,-32 9,-62 25,-87 v -58 h -500 v -1710 c 0,-110 90,-200 200,-200 z"
       id="path76"
       style="fill:none;stroke:#088ca2;stroke-width:30;stroke-miterlimit:4;stroke-dasharray:none"
       inkscape:connector-curvature="0" /><path
       class="fil0 str0"
       d="m 10249,16670 h 1400 c 110,0 200,90 200,200 v 1710 h -500 v 58 c 16,25 25,55 25,87 0,32 -9,61 -25,86 v 59 c -264,0 -536,0 -800,0 v -59 c -16,-25 -25,-54 -25,-86 0,-32 9,-62 25,-87 v -58 h -500 v -1710 c 0,-110 90,-200 200,-200 z"
       id="path78"
       style="fill:none;stroke:#088ca2;stroke-width:30;stroke-miterlimit:4;stroke-dasharray:none"
       inkscape:connector-curvature="0" /><path
       class="fil0 str0"
       d="m 12449,16670 h 1400 c 110,0 200,90 200,200 v 1710 h -500 v 58 c 16,25 25,55 25,87 0,32 -9,61 -25,86 v 59 c -264,0 -536,0 -800,0 v -59 c -16,-25 -25,-54 -25,-86 0,-32 9,-62 25,-87 v -58 h -500 v -1710 c 0,-110 90,-200 200,-200 z"
       id="path80"
       style="fill:none;stroke:#088ca2;stroke-width:30;stroke-miterlimit:4;stroke-dasharray:none"
       inkscape:connector-curvature="0" /><path
       class="fil0 str0"
       d="m 14649,16670 h 1400 c 110,0 200,90 200,200 v 1710 h -500 v 58 c 16,25 25,55 25,87 0,32 -9,61 -25,86 v 59 c -264,0 -536,0 -800,0 v -59 c -16,-25 -25,-54 -25,-86 0,-32 9,-62 25,-87 v -58 h -500 v -1710 c 0,-110 90,-200 200,-200 z"
       id="path82"
       style="fill:none;stroke:#088ca2;stroke-width:30;stroke-miterlimit:4;stroke-dasharray:none"
       inkscape:connector-curvature="0" /><path
       class="fil0 str0"
       d="m 16849,16670 h 1400 c 110,0 200,90 200,200 v 1710 h -500 v 58 c 16,25 25,55 25,87 0,32 -9,61 -25,86 v 59 c -264,0 -536,0 -800,0 v -59 c -16,-25 -25,-54 -25,-86 0,-32 9,-62 25,-87 v -58 h -500 v -1710 c 0,-110 90,-200 200,-200 z"
       id="path84"
       style="fill:none;stroke:#088ca2;stroke-width:30;stroke-miterlimit:4;stroke-dasharray:none"
       inkscape:connector-curvature="0" /><path
       class="fil0 str0"
       d="m 19049,16670 h 1400 c 110,0 200,90 200,200 v 1710 h -500 v 58 c 16,25 25,55 25,87 0,32 -9,61 -25,86 v 59 c -264,0 -536,0 -800,0 v -59 c -16,-25 -25,-54 -25,-86 0,-32 9,-62 25,-87 v -58 h -500 v -1710 c 0,-110 90,-200 200,-200 z"
       id="path86"
       style="fill:none;stroke:#088ca2;stroke-width:30;stroke-miterlimit:4;stroke-dasharray:none"
       inkscape:connector-curvature="0" /><path
       class="fil0 str0"
       d="m 21249,16670 h 1400 c 110,0 200,90 200,200 v 1710 h -500 v 58 c 16,25 25,55 25,87 0,32 -9,61 -25,86 v 59 c -264,0 -536,0 -800,0 v -59 c -16,-25 -25,-54 -25,-86 0,-32 9,-62 25,-87 v -58 h -500 v -1710 c 0,-110 90,-200 200,-200 z"
       id="path88"
       style="fill:none;stroke:#088ca2;stroke-width:30;stroke-miterlimit:4;stroke-dasharray:none"
       inkscape:connector-curvature="0" /><rect
       class="fil0 str0"
       x="3449"
       y="6570"
       width="1800"
       height="1400"
       rx="200"
       ry="102"
       id="rect90"
       style="fill:none;stroke:#088ca2;stroke-width:30;stroke-miterlimit:4;stroke-dasharray:none" /><rect
       class="fil0 str1"
       x="3949"
       y="7125"
       width="800"
       height="290"
       id="rect92"
       style="fill:none;stroke:#2b2a29;stroke-width:30;stroke-miterlimit:4;stroke-dasharray:none" /><rect
       class="fil0 str0"
       x="5649"
       y="6570"
       width="1800"
       height="1400"
       rx="200"
       ry="102"
       id="rect94"
       style="fill:none;stroke:#088ca2;stroke-width:30;stroke-miterlimit:4;stroke-dasharray:none" /><rect
       class="fil0 str1"
       x="6149"
       y="7125"
       width="800"
       height="290"
       id="rect96"
       style="fill:none;stroke:#2b2a29;stroke-width:30;stroke-miterlimit:4;stroke-dasharray:none" /><rect
       class="fil0 str0"
       x="7849"
       y="6570"
       width="1800"
       height="1400"
       rx="200"
       ry="102"
       id="rect98"
       style="fill:none;stroke:#088ca2;stroke-width:30;stroke-miterlimit:4;stroke-dasharray:none" /><rect
       class="fil0 str1"
       x="8349"
       y="7125"
       width="800"
       height="290"
       id="rect100"
       style="fill:none;stroke:#2b2a29;stroke-width:30;stroke-miterlimit:4;stroke-dasharray:none" /><rect
       class="fil0 str0"
       x="10049"
       y="6570"
       width="1800"
       height="1400"
       rx="200"
       ry="102"
       id="rect102"
       style="fill:none;stroke:#088ca2;stroke-width:30;stroke-miterlimit:4;stroke-dasharray:none" /><rect
       class="fil0 str1"
       x="10549"
       y="7125"
       width="800"
       height="290"
       id="rect104"
       style="fill:none;stroke:#2b2a29;stroke-width:30;stroke-miterlimit:4;stroke-dasharray:none" /><rect
       class="fil0 str0"
       x="12249"
       y="6570"
       width="1800"
       height="1400"
       rx="200"
       ry="102"
       id="rect106"
       style="fill:none;stroke:#088ca2;stroke-width:30;stroke-miterlimit:4;stroke-dasharray:none" /><rect
       class="fil0 str1"
       x="12749"
       y="7125"
       width="800"
       height="290"
       id="rect108"
       style="fill:none;stroke:#2b2a29;stroke-width:30;stroke-miterlimit:4;stroke-dasharray:none" /><rect
       class="fil0 str0"
       x="14449"
       y="6570"
       width="1800"
       height="1400"
       rx="200"
       ry="102"
       id="rect110"
       style="fill:none;stroke:#088ca2;stroke-width:30;stroke-miterlimit:4;stroke-dasharray:none" /><rect
       class="fil0 str1"
       x="14949"
       y="7125"
       width="800"
       height="290"
       id="rect112"
       style="fill:none;stroke:#2b2a29;stroke-width:30;stroke-miterlimit:4;stroke-dasharray:none" /><rect
       class="fil0 str0"
       x="16649"
       y="6570"
       width="1800"
       height="1400"
       rx="200"
       ry="102"
       id="rect114"
       style="fill:none;stroke:#088ca2;stroke-width:30;stroke-miterlimit:4;stroke-dasharray:none" /><rect
       class="fil0 str1"
       x="17149"
       y="7125"
       width="800"
       height="290"
       id="rect116"
       style="fill:none;stroke:#2b2a29;stroke-width:30;stroke-miterlimit:4;stroke-dasharray:none" /><rect
       class="fil0 str0"
       x="18849"
       y="6570"
       width="1800"
       height="1400"
       rx="200"
       ry="102"
       id="rect118"
       style="fill:none;stroke:#088ca2;stroke-width:30;stroke-miterlimit:4;stroke-dasharray:none" /><rect
       class="fil0 str1"
       x="19349"
       y="7125"
       width="800"
       height="290"
       id="rect120"
       style="fill:none;stroke:#2b2a29;stroke-width:30;stroke-miterlimit:4;stroke-dasharray:none" /><rect
       class="fil0 str0"
       x="21049"
       y="6570"
       width="1800"
       height="1400"
       rx="200"
       ry="102"
       id="rect122"
       style="fill:none;stroke:#088ca2;stroke-width:30;stroke-miterlimit:4;stroke-dasharray:none" /><rect
       class="fil0 str1"
       x="21549"
       y="7125"
       width="800"
       height="290"
       id="rect124"
       style="fill:none;stroke:#2b2a29;stroke-width:30;stroke-miterlimit:4;stroke-dasharray:none" /><rect
       class="fil0 str0"
       x="23249"
       y="6570"
       width="1800"
       height="1400"
       rx="200"
       ry="102"
       id="rect126"
       style="fill:none;stroke:#088ca2;stroke-width:30;stroke-miterlimit:4;stroke-dasharray:none" /><rect
       class="fil0 str1"
       x="23749"
       y="7125"
       width="800"
       height="290"
       id="rect128"
       style="fill:none;stroke:#2b2a29;stroke-width:30;stroke-miterlimit:4;stroke-dasharray:none" /><rect
       class="fil0 str0"
       x="25449"
       y="6570"
       width="1800"
       height="1400"
       rx="200"
       ry="102"
       id="rect130"
       style="fill:none;stroke:#088ca2;stroke-width:30;stroke-miterlimit:4;stroke-dasharray:none" /><rect
       class="fil0 str1"
       x="25949"
       y="7125"
       width="800"
       height="290"
       id="rect132"
       style="fill:none;stroke:#2b2a29;stroke-width:30;stroke-miterlimit:4;stroke-dasharray:none" /><rect
       class="fil0 str0"
       x="3449"
       y="10770"
       width="1800"
       height="1400"
       rx="200"
       ry="102"
       id="rect134"
       style="fill:none;stroke:#088ca2;stroke-width:30;stroke-miterlimit:4;stroke-dasharray:none" /><rect
       class="fil0 str1"
       x="3949"
       y="11325"
       width="800"
       height="290"
       id="rect136"
       style="fill:none;stroke:#2b2a29;stroke-width:30;stroke-miterlimit:4;stroke-dasharray:none" /><rect
       class="fil0 str0"
       x="5649"
       y="10770"
       width="1800"
       height="1400"
       rx="200"
       ry="102"
       id="rect138"
       style="fill:none;stroke:#088ca2;stroke-width:30;stroke-miterlimit:4;stroke-dasharray:none" /><rect
       class="fil0 str1"
       x="6149"
       y="11325"
       width="800"
       height="290"
       id="rect140"
       style="fill:none;stroke:#2b2a29;stroke-width:30;stroke-miterlimit:4;stroke-dasharray:none" /><rect
       class="fil0 str0"
       x="7849"
       y="10770"
       width="1800"
       height="1400"
       rx="200"
       ry="102"
       id="rect142"
       style="fill:none;stroke:#088ca2;stroke-width:30;stroke-miterlimit:4;stroke-dasharray:none" /><rect
       class="fil0 str1"
       x="8349"
       y="11325"
       width="800"
       height="290"
       id="rect144"
       style="fill:none;stroke:#2b2a29;stroke-width:30;stroke-miterlimit:4;stroke-dasharray:none" /><rect
       class="fil0 str0"
       x="10049"
       y="10770"
       width="1800"
       height="1400"
       rx="200"
       ry="102"
       id="rect146"
       style="fill:none;stroke:#088ca2;stroke-width:30;stroke-miterlimit:4;stroke-dasharray:none" /><rect
       class="fil0 str1"
       x="10549"
       y="11325"
       width="800"
       height="290"
       id="rect148"
       style="fill:none;stroke:#2b2a29;stroke-width:30;stroke-miterlimit:4;stroke-dasharray:none" /><rect
       class="fil0 str0"
       x="12249"
       y="10770"
       width="1800"
       height="1400"
       rx="200"
       ry="102"
       id="rect150"
       style="fill:none;stroke:#088ca2;stroke-width:30;stroke-miterlimit:4;stroke-dasharray:none" /><rect
       class="fil0 str1"
       x="12749"
       y="11325"
       width="800"
       height="290"
       id="rect152"
       style="fill:none;stroke:#2b2a29;stroke-width:30;stroke-miterlimit:4;stroke-dasharray:none" /><rect
       class="fil0 str0"
       x="14449"
       y="10770"
       width="1800"
       height="1400"
       rx="200"
       ry="102"
       id="rect154"
       style="fill:none;stroke:#088ca2;stroke-width:30;stroke-miterlimit:4;stroke-dasharray:none" /><rect
       class="fil0 str1"
       x="14949"
       y="11325"
       width="800"
       height="290"
       id="rect156"
       style="fill:none;stroke:#2b2a29;stroke-width:30;stroke-miterlimit:4;stroke-dasharray:none" /><rect
       class="fil0 str0"
       x="16649"
       y="10770"
       width="1800"
       height="1400"
       rx="200"
       ry="102"
       id="rect158"
       style="fill:none;stroke:#088ca2;stroke-width:30;stroke-miterlimit:4;stroke-dasharray:none" /><rect
       class="fil0 str1"
       x="17149"
       y="11325"
       width="800"
       height="290"
       id="rect160"
       style="fill:none;stroke:#2b2a29;stroke-width:30;stroke-miterlimit:4;stroke-dasharray:none" /><rect
       class="fil0 str0"
       x="18849"
       y="10770"
       width="1800"
       height="1400"
       rx="200"
       ry="102"
       id="rect162"
       style="fill:none;stroke:#088ca2;stroke-width:30;stroke-miterlimit:4;stroke-dasharray:none" /><rect
       class="fil0 str1"
       x="19349"
       y="11325"
       width="800"
       height="290"
       id="rect164"
       style="fill:none;stroke:#2b2a29;stroke-width:30;stroke-miterlimit:4;stroke-dasharray:none" /><rect
       class="fil0 str0"
       x="21049"
       y="10770"
       width="1800"
       height="1400"
       rx="200"
       ry="102"
       id="rect166"
       style="fill:none;stroke:#088ca2;stroke-width:30;stroke-miterlimit:4;stroke-dasharray:none" /><rect
       class="fil0 str1"
       x="21549"
       y="11325"
       width="800"
       height="290"
       id="rect168"
       style="fill:none;stroke:#2b2a29;stroke-width:30;stroke-miterlimit:4;stroke-dasharray:none" /><rect
       class="fil0 str0"
       x="23249"
       y="10770"
       width="1800"
       height="1400"
       rx="200"
       ry="102"
       id="rect170"
       style="fill:none;stroke:#088ca2;stroke-width:30;stroke-miterlimit:4;stroke-dasharray:none" /><rect
       class="fil0 str1"
       x="23749"
       y="11325"
       width="800"
       height="290"
       id="rect172"
       style="fill:none;stroke:#2b2a29;stroke-width:30;stroke-miterlimit:4;stroke-dasharray:none" /><rect
       class="fil0 str0"
       x="25449"
       y="10770"
       width="1800"
       height="1400"
       rx="200"
       ry="102"
       id="rect174"
       style="fill:none;stroke:#088ca2;stroke-width:30;stroke-miterlimit:4;stroke-dasharray:none" /><rect
       class="fil0 str1"
       x="25949"
       y="11325"
       width="800"
       height="290"
       id="rect176"
       style="fill:none;stroke:#2b2a29;stroke-width:30;stroke-miterlimit:4;stroke-dasharray:none" /><rect
       class="fil0 str0"
       x="3449"
       y="14970"
       width="1800"
       height="1400"
       rx="200"
       ry="102"
       id="rect178"
       style="fill:none;stroke:#088ca2;stroke-width:30;stroke-miterlimit:4;stroke-dasharray:none" /><rect
       class="fil0 str1"
       x="3949"
       y="15525"
       width="800"
       height="290"
       id="rect180"
       style="fill:none;stroke:#2b2a29;stroke-width:30;stroke-miterlimit:4;stroke-dasharray:none" /><rect
       class="fil0 str0"
       x="5649"
       y="14970"
       width="1800"
       height="1400"
       rx="200"
       ry="102"
       id="rect182"
       style="fill:none;stroke:#088ca2;stroke-width:30;stroke-miterlimit:4;stroke-dasharray:none" /><rect
       class="fil0 str1"
       x="6149"
       y="15525"
       width="800"
       height="290"
       id="rect184"
       style="fill:none;stroke:#2b2a29;stroke-width:30;stroke-miterlimit:4;stroke-dasharray:none" /><rect
       class="fil0 str0"
       x="7849"
       y="14970"
       width="1800"
       height="1400"
       rx="200"
       ry="102"
       id="rect186"
       style="fill:none;stroke:#088ca2;stroke-width:30;stroke-miterlimit:4;stroke-dasharray:none" /><rect
       class="fil0 str1"
       x="8349"
       y="15525"
       width="800"
       height="290"
       id="rect188"
       style="fill:none;stroke:#2b2a29;stroke-width:30;stroke-miterlimit:4;stroke-dasharray:none" /><rect
       class="fil0 str0"
       x="10049"
       y="14970"
       width="1800"
       height="1400"
       rx="200"
       ry="102"
       id="rect190"
       style="fill:none;stroke:#088ca2;stroke-width:30;stroke-miterlimit:4;stroke-dasharray:none" /><rect
       class="fil0 str1"
       x="10549"
       y="15525"
       width="800"
       height="290"
       id="rect192"
       style="fill:none;stroke:#2b2a29;stroke-width:30;stroke-miterlimit:4;stroke-dasharray:none" /><rect
       class="fil0 str0"
       x="12249"
       y="14970"
       width="1800"
       height="1400"
       rx="200"
       ry="102"
       id="rect194"
       style="fill:none;stroke:#088ca2;stroke-width:30;stroke-miterlimit:4;stroke-dasharray:none" /><rect
       class="fil0 str1"
       x="12749"
       y="15525"
       width="800"
       height="290"
       id="rect196"
       style="fill:none;stroke:#2b2a29;stroke-width:30;stroke-miterlimit:4;stroke-dasharray:none" /><rect
       class="fil0 str0"
       x="14449"
       y="14970"
       width="1800"
       height="1400"
       rx="200"
       ry="102"
       id="rect198"
       style="fill:none;stroke:#088ca2;stroke-width:30;stroke-miterlimit:4;stroke-dasharray:none" /><rect
       class="fil0 str1"
       x="14949"
       y="15525"
       width="800"
       height="290"
       id="rect200"
       style="fill:none;stroke:#2b2a29;stroke-width:30;stroke-miterlimit:4;stroke-dasharray:none" /><rect
       class="fil0 str0"
       x="16649"
       y="14970"
       width="1800"
       height="1400"
       rx="200"
       ry="102"
       id="rect202"
       style="fill:none;stroke:#088ca2;stroke-width:30;stroke-miterlimit:4;stroke-dasharray:none" /><rect
       class="fil0 str1"
       x="17149"
       y="15525"
       width="800"
       height="290"
       id="rect204"
       style="fill:none;stroke:#2b2a29;stroke-width:30;stroke-miterlimit:4;stroke-dasharray:none" /><rect
       class="fil0 str0"
       x="18849"
       y="14970"
       width="1800"
       height="1400"
       rx="200"
       ry="102"
       id="rect206"
       style="fill:none;stroke:#088ca2;stroke-width:30;stroke-miterlimit:4;stroke-dasharray:none" /><rect
       class="fil0 str1"
       x="19349"
       y="15525"
       width="800"
       height="290"
       id="rect208"
       style="fill:none;stroke:#2b2a29;stroke-width:30;stroke-miterlimit:4;stroke-dasharray:none" /><rect
       class="fil0 str0"
       x="21049"
       y="14970"
       width="1800"
       height="1400"
       rx="200"
       ry="102"
       id="rect210"
       style="fill:none;stroke:#088ca2;stroke-width:30;stroke-miterlimit:4;stroke-dasharray:none" /><rect
       class="fil0 str1"
       x="21549"
       y="15525"
       width="800"
       height="290"
       id="rect212"
       style="fill:none;stroke:#2b2a29;stroke-width:30;stroke-miterlimit:4;stroke-dasharray:none" /><rect
       class="fil0 str0"
       x="23249"
       y="14970"
       width="1800"
       height="1400"
       rx="200"
       ry="102"
       id="rect214"
       style="fill:none;stroke:#088ca2;stroke-width:30;stroke-miterlimit:4;stroke-dasharray:none" /><rect
       class="fil0 str1"
       x="23749"
       y="15525"
       width="800"
       height="290"
       id="rect216"
       style="fill:none;stroke:#2b2a29;stroke-width:30;stroke-miterlimit:4;stroke-dasharray:none" /><rect
       class="fil0 str0"
       x="25449"
       y="14970"
       width="1800"
       height="1400"
       rx="200"
       ry="102"
       id="rect218"
       style="fill:none;stroke:#088ca2;stroke-width:30;stroke-miterlimit:4;stroke-dasharray:none" /><rect
       class="fil0 str1"
       x="25949"
       y="15525"
       width="800"
       height="290"
       id="rect220"
       style="fill:none;stroke:#2b2a29;stroke-width:30;stroke-miterlimit:4;stroke-dasharray:none" /><rect
       class="fil0 str0"
       x="3449"
       y="19170"
       width="1800"
       height="1400"
       rx="200"
       ry="102"
       id="rect222"
       style="fill:none;stroke:#088ca2;stroke-width:30;stroke-miterlimit:4;stroke-dasharray:none" /><rect
       class="fil0 str1"
       x="3949"
       y="19725"
       width="800"
       height="290"
       id="rect224"
       style="fill:none;stroke:#2b2a29;stroke-width:30;stroke-miterlimit:4;stroke-dasharray:none" /><rect
       class="fil0 str0"
       x="5649"
       y="19170"
       width="1800"
       height="1400"
       rx="200"
       ry="102"
       id="rect226"
       style="fill:none;stroke:#088ca2;stroke-width:30;stroke-miterlimit:4;stroke-dasharray:none" /><rect
       class="fil0 str1"
       x="6149"
       y="19725"
       width="800"
       height="290"
       id="rect228"
       style="fill:none;stroke:#2b2a29;stroke-width:30;stroke-miterlimit:4;stroke-dasharray:none" /><rect
       class="fil0 str0"
       x="7849"
       y="19170"
       width="1800"
       height="1400"
       rx="200"
       ry="102"
       id="rect230"
       style="fill:none;stroke:#088ca2;stroke-width:30;stroke-miterlimit:4;stroke-dasharray:none" /><rect
       class="fil0 str1"
       x="8349"
       y="19725"
       width="800"
       height="290"
       id="rect232"
       style="fill:none;stroke:#2b2a29;stroke-width:30;stroke-miterlimit:4;stroke-dasharray:none" /><rect
       class="fil0 str0"
       x="10049"
       y="19170"
       width="1800"
       height="1400"
       rx="200"
       ry="102"
       id="rect234"
       style="fill:none;stroke:#088ca2;stroke-width:30;stroke-miterlimit:4;stroke-dasharray:none" /><rect
       class="fil0 str1"
       x="10549"
       y="19725"
       width="800"
       height="290"
       id="rect236"
       style="fill:none;stroke:#2b2a29;stroke-width:30;stroke-miterlimit:4;stroke-dasharray:none" /><rect
       class="fil0 str0"
       x="12249"
       y="19170"
       width="1800"
       height="1400"
       rx="200"
       ry="102"
       id="rect238"
       style="fill:none;stroke:#088ca2;stroke-width:30;stroke-miterlimit:4;stroke-dasharray:none" /><rect
       class="fil0 str1"
       x="12749"
       y="19725"
       width="800"
       height="290"
       id="rect240"
       style="fill:none;stroke:#2b2a29;stroke-width:30;stroke-miterlimit:4;stroke-dasharray:none" /><rect
       class="fil0 str0"
       x="14449"
       y="19170"
       width="1800"
       height="1400"
       rx="200"
       ry="102"
       id="rect242"
       style="fill:none;stroke:#088ca2;stroke-width:30;stroke-miterlimit:4;stroke-dasharray:none" /><rect
       class="fil0 str1"
       x="14949"
       y="19725"
       width="800"
       height="290"
       id="rect244"
       style="fill:none;stroke:#2b2a29;stroke-width:30;stroke-miterlimit:4;stroke-dasharray:none" /><rect
       class="fil0 str0"
       x="16649"
       y="19170"
       width="1800"
       height="1400"
       rx="200"
       ry="102"
       id="rect246"
       style="fill:none;stroke:#088ca2;stroke-width:30;stroke-miterlimit:4;stroke-dasharray:none" /><rect
       class="fil0 str1"
       x="17149"
       y="19725"
       width="800"
       height="290"
       id="rect248"
       style="fill:none;stroke:#2b2a29;stroke-width:30;stroke-miterlimit:4;stroke-dasharray:none" /><rect
       class="fil0 str0"
       x="18849"
       y="19170"
       width="1800"
       height="1400"
       rx="200"
       ry="102"
       id="rect250"
       style="fill:none;stroke:#088ca2;stroke-width:30;stroke-miterlimit:4;stroke-dasharray:none" /><rect
       class="fil0 str1"
       x="19349"
       y="19725"
       width="800"
       height="290"
       id="rect252"
       style="fill:none;stroke:#2b2a29;stroke-width:30;stroke-miterlimit:4;stroke-dasharray:none" /><rect
       class="fil0 str0"
       x="21049"
       y="19170"
       width="1800"
       height="1400"
       rx="200"
       ry="102"
       id="rect254"
       style="fill:none;stroke:#088ca2;stroke-width:30;stroke-miterlimit:4;stroke-dasharray:none" /><rect
       class="fil0 str1"
       x="21549"
       y="19725"
       width="800"
       height="290"
       id="rect256"
       style="fill:none;stroke:#2b2a29;stroke-width:30;stroke-miterlimit:4;stroke-dasharray:none" /><path
       class="fil0 str2"
       d="m 4705,5565 h -712 v -188 h 227 v -569 h -227 v -177 c 34,0 67,-2 99,-6 33,-4 59,-11 79,-21 23,-12 41,-27 54,-47 13,-19 20,-43 22,-72 h 235 v 892 h 223 z"
       id="path258"
       style="fill:none;stroke:#e31e24;stroke-width:30;stroke-miterlimit:4;stroke-dasharray:none"
       inkscape:connector-curvature="0" /><path
       class="fil0 str2"
       d="m 6978,5565 h -791 v -176 c 67,-53 127,-103 180,-150 53,-47 100,-92 140,-135 53,-55 91,-104 114,-146 24,-42 36,-85 36,-129 0,-51 -15,-89 -45,-116 -30,-27 -71,-40 -125,-40 -27,0 -53,3 -77,10 -24,6 -49,15 -74,25 -24,12 -45,23 -63,34 -17,11 -30,20 -38,26 h -21 v -235 c 30,-15 77,-29 142,-45 64,-15 127,-22 186,-22 128,0 225,28 290,85 66,57 99,137 99,241 0,63 -15,126 -45,187 -30,61 -79,127 -149,197 -43,43 -86,81 -127,115 -41,33 -70,57 -88,71 h 456 z"
       id="path260"
       style="fill:none;stroke:#e31e24;stroke-width:30;stroke-miterlimit:4;stroke-dasharray:none"
       inkscape:connector-curvature="0" /><path
       class="fil0 str2"
       d="m 9151,5238 c 0,53 -9,101 -29,144 -19,44 -48,81 -86,111 -38,30 -83,54 -134,70 -51,16 -114,24 -188,24 -84,0 -156,-7 -216,-21 -60,-14 -109,-29 -147,-47 v -234 h 26 c 40,26 87,48 140,67 54,18 102,28 146,28 26,0 55,-3 86,-7 30,-5 56,-15 77,-31 16,-12 30,-27 40,-44 9,-18 14,-43 14,-76 0,-32 -7,-57 -21,-74 -14,-17 -32,-30 -56,-37 -23,-9 -51,-13 -83,-14 -33,-1 -62,-2 -86,-2 h -47 v -188 h 43 c 33,0 63,-1 90,-4 28,-3 51,-9 71,-18 19,-9 34,-22 45,-38 11,-17 16,-39 16,-67 0,-22 -5,-39 -15,-53 -10,-14 -23,-25 -38,-32 -17,-9 -37,-15 -60,-18 -24,-3 -43,-4 -60,-4 -26,0 -53,3 -81,9 -27,7 -54,15 -80,25 -20,7 -42,17 -64,30 -22,12 -38,21 -49,28 h -23 v -231 c 38,-16 88,-32 151,-47 63,-14 127,-21 193,-21 64,0 120,5 167,16 47,11 87,27 120,49 37,22 64,51 83,86 18,35 27,74 27,118 0,61 -17,115 -53,161 -35,46 -82,76 -140,89 v 10 c 25,4 51,11 75,20 24,9 48,24 71,45 22,19 40,43 54,73 14,29 21,64 21,105 z"
       id="path262"
       style="fill:none;stroke:#e31e24;stroke-width:30;stroke-miterlimit:4;stroke-dasharray:none"
       inkscape:connector-curvature="0" /><path
       class="fil0 str2"
       d="m 11351,5238 c 0,53 -9,101 -29,144 -19,44 -48,81 -86,111 -38,30 -83,54 -134,70 -51,16 -114,24 -188,24 -84,0 -156,-7 -216,-21 -60,-14 -109,-29 -147,-47 v -234 h 26 c 40,26 87,48 140,67 54,18 102,28 146,28 26,0 55,-3 86,-7 30,-5 56,-15 77,-31 16,-12 30,-27 40,-44 9,-18 14,-43 14,-76 0,-32 -7,-57 -21,-74 -14,-17 -32,-30 -56,-37 -23,-9 -51,-13 -83,-14 -33,-1 -62,-2 -86,-2 h -47 v -188 h 43 c 33,0 63,-1 90,-4 28,-3 51,-9 71,-18 19,-9 34,-22 45,-38 11,-17 16,-39 16,-67 0,-22 -5,-39 -15,-53 -10,-14 -23,-25 -38,-32 -17,-9 -37,-15 -60,-18 -24,-3 -43,-4 -60,-4 -26,0 -53,3 -81,9 -27,7 -54,15 -80,25 -20,7 -42,17 -64,30 -22,12 -38,21 -49,28 h -23 v -231 c 38,-16 88,-32 151,-47 63,-14 127,-21 193,-21 64,0 120,5 167,16 47,11 87,27 120,49 37,22 64,51 83,86 18,35 27,74 27,118 0,61 -17,115 -53,161 -35,46 -82,76 -140,89 v 10 c 25,4 51,11 75,20 24,9 48,24 71,45 22,19 40,43 54,73 14,29 21,64 21,105 z"
       id="path264"
       style="fill:none;stroke:#e31e24;stroke-width:30;stroke-miterlimit:4;stroke-dasharray:none"
       inkscape:connector-curvature="0" /><path
       class="fil0 str2"
       d="m 13590,5315 h -145 v 253 h -262 v -253 h -473 v -202 l 464,-625 h 271 v 632 h 145 z m -407,-195 v -366 l -272,366 z"
       id="path266"
       style="fill:none;stroke:#e31e24;stroke-width:30;stroke-miterlimit:4;stroke-dasharray:none"
       inkscape:connector-curvature="0" /><path
       class="fil0 str2"
       d="m 15790,5315 h -145 v 253 h -262 v -253 h -473 v -202 l 464,-625 h 271 v 632 h 145 z m -407,-195 v -366 l -272,366 z"
       id="path268"
       style="fill:none;stroke:#e31e24;stroke-width:30;stroke-miterlimit:4;stroke-dasharray:none"
       inkscape:connector-curvature="0" /><path
       class="fil0 str2"
       d="m 17990,5315 h -145 v 253 h -262 v -253 h -473 v -202 l 464,-625 h 271 v 632 h 145 z m -407,-195 v -366 l -272,366 z"
       id="path270"
       style="fill:none;stroke:#e31e24;stroke-width:30;stroke-miterlimit:4;stroke-dasharray:none"
       inkscape:connector-curvature="0" /><path
       class="fil0 str2"
       d="m 20154,5200 c 0,56 -9,108 -28,156 -19,47 -48,89 -86,123 -38,35 -82,61 -134,80 -52,19 -116,28 -192,28 -80,0 -149,-7 -206,-21 -58,-13 -106,-28 -143,-44 v -236 h 24 c 14,8 29,17 46,27 17,10 39,20 67,31 25,11 51,19 78,26 26,6 55,10 88,10 28,0 58,-4 91,-11 32,-7 58,-20 78,-38 14,-15 26,-31 34,-49 8,-18 12,-42 12,-72 0,-25 -5,-47 -15,-65 -11,-18 -24,-33 -41,-44 -25,-16 -55,-27 -90,-31 -34,-5 -65,-7 -90,-7 -39,0 -78,3 -115,9 -38,6 -70,13 -98,20 h -23 v -604 h 714 v 203 h -460 v 180 c 15,-1 32,-2 52,-3 20,-1 36,-1 47,-1 52,0 100,5 144,16 44,10 83,26 117,48 41,26 73,62 95,106 23,45 34,99 34,163 z"
       id="path272"
       style="fill:none;stroke:#e31e24;stroke-width:30;stroke-miterlimit:4;stroke-dasharray:none"
       inkscape:connector-curvature="0" /><path
       class="fil0 str2"
       d="m 22354,5200 c 0,56 -9,108 -28,156 -19,47 -48,89 -86,123 -38,35 -82,61 -134,80 -52,19 -116,28 -192,28 -80,0 -149,-7 -206,-21 -58,-13 -106,-28 -143,-44 v -236 h 24 c 14,8 29,17 46,27 17,10 39,20 67,31 25,11 51,19 78,26 26,6 55,10 88,10 28,0 58,-4 91,-11 32,-7 58,-20 78,-38 14,-15 26,-31 34,-49 8,-18 12,-42 12,-72 0,-25 -5,-47 -15,-65 -11,-18 -24,-33 -41,-44 -25,-16 -55,-27 -90,-31 -34,-5 -65,-7 -90,-7 -39,0 -78,3 -115,9 -38,6 -70,13 -98,20 h -23 v -604 h 714 v 203 h -460 v 180 c 15,-1 32,-2 52,-3 20,-1 36,-1 47,-1 52,0 100,5 144,16 44,10 83,26 117,48 41,26 73,62 95,106 23,45 34,99 34,163 z"
       id="path274"
       style="fill:none;stroke:#e31e24;stroke-width:30;stroke-miterlimit:4;stroke-dasharray:none"
       inkscape:connector-curvature="0" /><path
       class="fil0 str2"
       d="m 24554,5200 c 0,56 -9,108 -28,156 -19,47 -48,89 -86,123 -38,35 -82,61 -134,80 -52,19 -116,28 -192,28 -80,0 -149,-7 -206,-21 -58,-13 -106,-28 -143,-44 v -236 h 24 c 14,8 29,17 46,27 17,10 39,20 67,31 25,11 51,19 78,26 26,6 55,10 88,10 28,0 58,-4 91,-11 32,-7 58,-20 78,-38 14,-15 26,-31 34,-49 8,-18 12,-42 12,-72 0,-25 -5,-47 -15,-65 -11,-18 -24,-33 -41,-44 -25,-16 -55,-27 -90,-31 -34,-5 -65,-7 -90,-7 -39,0 -78,3 -115,9 -38,6 -70,13 -98,20 h -23 v -604 h 714 v 203 h -460 v 180 c 15,-1 32,-2 52,-3 20,-1 36,-1 47,-1 52,0 100,5 144,16 44,10 83,26 117,48 41,26 73,62 95,106 23,45 34,99 34,163 z"
       id="path276"
       style="fill:none;stroke:#e31e24;stroke-width:30;stroke-miterlimit:4;stroke-dasharray:none"
       inkscape:connector-curvature="0" /><path
       class="fil0 str2"
       d="m 26754,5200 c 0,56 -9,108 -28,156 -19,47 -48,89 -86,123 -38,35 -82,61 -134,80 -52,19 -116,28 -192,28 -80,0 -149,-7 -206,-21 -58,-13 -106,-28 -143,-44 v -236 h 24 c 14,8 29,17 46,27 17,10 39,20 67,31 25,11 51,19 78,26 26,6 55,10 88,10 28,0 58,-4 91,-11 32,-7 58,-20 78,-38 14,-15 26,-31 34,-49 8,-18 12,-42 12,-72 0,-25 -5,-47 -15,-65 -11,-18 -24,-33 -41,-44 -25,-16 -55,-27 -90,-31 -34,-5 -65,-7 -90,-7 -39,0 -78,3 -115,9 -38,6 -70,13 -98,20 h -23 v -604 h 714 v 203 h -460 v 180 c 15,-1 32,-2 52,-3 20,-1 36,-1 47,-1 52,0 100,5 144,16 44,10 83,26 117,48 41,26 73,62 95,106 23,45 34,99 34,163 z"
       id="path278"
       style="fill:none;stroke:#e31e24;stroke-width:30;stroke-miterlimit:4;stroke-dasharray:none"
       inkscape:connector-curvature="0" /><path
       class="fil0 str2"
       d="m 4772,9397 c 0,114 -36,207 -108,280 -72,74 -170,110 -296,110 -63,0 -119,-9 -168,-27 -49,-18 -91,-45 -125,-80 -41,-42 -72,-95 -94,-161 -22,-65 -33,-144 -33,-235 0,-94 11,-178 31,-252 20,-73 53,-138 99,-194 44,-54 101,-96 172,-126 71,-30 155,-45 252,-45 35,0 70,2 106,7 35,4 59,8 72,11 v 212 h -19 c -13,-7 -33,-13 -62,-21 -29,-8 -62,-12 -99,-12 -85,0 -150,22 -196,66 -46,45 -74,108 -84,191 35,-23 71,-41 107,-54 37,-14 78,-21 124,-21 38,0 75,5 109,16 34,10 64,25 90,45 38,29 67,66 89,112 22,47 33,106 33,178 z m -314,163 c 14,-17 24,-36 32,-57 7,-20 11,-51 11,-93 0,-35 -4,-63 -13,-86 -9,-23 -21,-41 -37,-54 -16,-14 -34,-23 -54,-28 -20,-5 -42,-8 -65,-8 -18,0 -38,3 -58,8 -20,5 -39,10 -56,18 0,5 0,12 -1,24 0,11 0,25 0,42 0,61 5,111 16,149 11,37 24,66 41,85 12,15 27,27 43,33 16,7 33,10 51,10 14,0 30,-3 47,-10 17,-8 31,-18 43,-33 z"
       id="path280"
       style="fill:none;stroke:#e31e24;stroke-width:30;stroke-miterlimit:4;stroke-dasharray:none"
       inkscape:connector-curvature="0" /><path
       class="fil0 str2"
       d="m 6972,9397 c 0,114 -36,207 -108,280 -72,74 -170,110 -296,110 -63,0 -119,-9 -168,-27 -49,-18 -91,-45 -125,-80 -41,-42 -72,-95 -94,-161 -22,-65 -33,-144 -33,-235 0,-94 11,-178 31,-252 20,-73 53,-138 99,-194 44,-54 101,-96 172,-126 71,-30 155,-45 252,-45 35,0 70,2 106,7 35,4 59,8 72,11 v 212 h -19 c -13,-7 -33,-13 -62,-21 -29,-8 -62,-12 -99,-12 -85,0 -150,22 -196,66 -46,45 -74,108 -84,191 35,-23 71,-41 107,-54 37,-14 78,-21 124,-21 38,0 75,5 109,16 34,10 64,25 90,45 38,29 67,66 89,112 22,47 33,106 33,178 z m -314,163 c 14,-17 24,-36 32,-57 7,-20 11,-51 11,-93 0,-35 -4,-63 -13,-86 -9,-23 -21,-41 -37,-54 -16,-14 -34,-23 -54,-28 -20,-5 -42,-8 -65,-8 -18,0 -38,3 -58,8 -20,5 -39,10 -56,18 0,5 0,12 -1,24 0,11 0,25 0,42 0,61 5,111 16,149 11,37 24,66 41,85 12,15 27,27 43,33 16,7 33,10 51,10 14,0 30,-3 47,-10 17,-8 31,-18 43,-33 z"
       id="path282"
       style="fill:none;stroke:#e31e24;stroke-width:30;stroke-miterlimit:4;stroke-dasharray:none"
       inkscape:connector-curvature="0" /><path
       class="fil0 str2"
       d="m 9172,9397 c 0,114 -36,207 -108,280 -72,74 -170,110 -296,110 -63,0 -119,-9 -168,-27 -49,-18 -91,-45 -125,-80 -41,-42 -72,-95 -94,-161 -22,-65 -33,-144 -33,-235 0,-94 11,-178 31,-252 20,-73 53,-138 99,-194 44,-54 101,-96 172,-126 71,-30 155,-45 252,-45 35,0 70,2 106,7 35,4 59,8 72,11 v 212 h -19 c -13,-7 -33,-13 -62,-21 -29,-8 -62,-12 -99,-12 -85,0 -150,22 -196,66 -46,45 -74,108 -84,191 35,-23 71,-41 107,-54 37,-14 78,-21 124,-21 38,0 75,5 109,16 34,10 64,25 90,45 38,29 67,66 89,112 22,47 33,106 33,178 z m -314,163 c 14,-17 24,-36 32,-57 7,-20 11,-51 11,-93 0,-35 -4,-63 -13,-86 -9,-23 -21,-41 -37,-54 -16,-14 -34,-23 -54,-28 -20,-5 -42,-8 -65,-8 -18,0 -38,3 -58,8 -20,5 -39,10 -56,18 0,5 0,12 -1,24 0,11 0,25 0,42 0,61 5,111 16,149 11,37 24,66 41,85 12,15 27,27 43,33 16,7 33,10 51,10 14,0 30,-3 47,-10 17,-8 31,-18 43,-33 z"
       id="path284"
       style="fill:none;stroke:#e31e24;stroke-width:30;stroke-miterlimit:4;stroke-dasharray:none"
       inkscape:connector-curvature="0" /><path
       class="fil0 str2"
       d="m 11372,9397 c 0,114 -36,207 -108,280 -72,74 -170,110 -296,110 -63,0 -119,-9 -168,-27 -49,-18 -91,-45 -125,-80 -41,-42 -72,-95 -94,-161 -22,-65 -33,-144 -33,-235 0,-94 11,-178 31,-252 20,-73 53,-138 99,-194 44,-54 101,-96 172,-126 71,-30 155,-45 252,-45 35,0 70,2 106,7 35,4 59,8 72,11 v 212 h -19 c -13,-7 -33,-13 -62,-21 -29,-8 -62,-12 -99,-12 -85,0 -150,22 -196,66 -46,45 -74,108 -84,191 35,-23 71,-41 107,-54 37,-14 78,-21 124,-21 38,0 75,5 109,16 34,10 64,25 90,45 38,29 67,66 89,112 22,47 33,106 33,178 z m -314,163 c 14,-17 24,-36 32,-57 7,-20 11,-51 11,-93 0,-35 -4,-63 -13,-86 -9,-23 -21,-41 -37,-54 -16,-14 -34,-23 -54,-28 -20,-5 -42,-8 -65,-8 -18,0 -38,3 -58,8 -20,5 -39,10 -56,18 0,5 0,12 -1,24 0,11 0,25 0,42 0,61 5,111 16,149 11,37 24,66 41,85 12,15 27,27 43,33 16,7 33,10 51,10 14,0 30,-3 47,-10 17,-8 31,-18 43,-33 z"
       id="path286"
       style="fill:none;stroke:#e31e24;stroke-width:30;stroke-miterlimit:4;stroke-dasharray:none"
       inkscape:connector-curvature="0" /><polygon
       class="fil0 str2"
       points="13554,8688 13554,8902 13095,9765 12794,9765 13275,8891 12762,8891 12762,8688 "
       id="polygon288"
       style="fill:none;stroke:#e31e24;stroke-width:30;stroke-miterlimit:4;stroke-dasharray:none" /><polygon
       class="fil0 str2"
       points="15754,8688 15754,8902 15295,9765 14994,9765 15475,8891 14962,8891 14962,8688 "
       id="polygon290"
       style="fill:none;stroke:#e31e24;stroke-width:30;stroke-miterlimit:4;stroke-dasharray:none" /><polygon
       class="fil0 str2"
       points="17954,8688 17954,8902 17495,9765 17194,9765 17675,8891 17162,8891 17162,8688 "
       id="polygon292"
       style="fill:none;stroke:#e31e24;stroke-width:30;stroke-miterlimit:4;stroke-dasharray:none" /><polygon
       class="fil0 str2"
       points="20154,8688 20154,8902 19695,9765 19394,9765 19875,8891 19362,8891 19362,8688 "
       id="polygon294"
       style="fill:none;stroke:#e31e24;stroke-width:30;stroke-miterlimit:4;stroke-dasharray:none" /><path
       class="fil0 str2"
       d="m 22375,9465 c 0,46 -9,89 -28,129 -19,40 -47,74 -84,103 -36,29 -81,52 -134,68 -53,17 -113,25 -181,25 -73,0 -136,-8 -190,-25 -55,-17 -99,-39 -134,-68 -35,-28 -60,-62 -76,-100 -17,-39 -25,-80 -25,-123 0,-61 17,-113 51,-154 34,-41 84,-75 148,-103 v -4 c -63,-31 -107,-68 -132,-112 -25,-44 -37,-93 -37,-147 0,-40 9,-77 26,-112 17,-35 43,-66 78,-93 33,-26 74,-47 124,-63 51,-16 107,-23 170,-23 66,0 124,7 173,21 50,14 90,33 122,56 33,24 58,52 75,86 17,33 26,70 26,109 0,51 -15,97 -44,138 -30,42 -75,77 -136,104 v 5 c 71,29 124,67 158,114 33,47 50,103 50,169 z m -290,-498 c 0,-37 -12,-66 -36,-88 -24,-22 -57,-33 -98,-33 -39,0 -71,10 -95,30 -24,20 -36,44 -36,73 0,29 7,52 22,70 14,17 37,33 67,48 14,7 30,14 48,21 19,8 43,17 74,29 18,-25 32,-49 41,-72 9,-22 13,-49 13,-78 z m 23,510 c 0,-36 -7,-63 -22,-82 -15,-18 -47,-40 -97,-63 -14,-7 -34,-16 -61,-26 -26,-10 -49,-19 -70,-28 -19,19 -35,42 -50,70 -15,28 -23,58 -23,92 0,50 17,90 48,120 32,30 75,45 127,45 14,0 30,-2 48,-7 19,-4 35,-12 49,-21 15,-11 28,-24 37,-40 10,-15 14,-35 14,-60 z"
       id="path296"
       style="fill:none;stroke:#e31e24;stroke-width:30;stroke-miterlimit:4;stroke-dasharray:none"
       inkscape:connector-curvature="0" /><path
       class="fil0 str2"
       d="m 24575,9465 c 0,46 -9,89 -28,129 -19,40 -47,74 -84,103 -36,29 -81,52 -134,68 -53,17 -113,25 -181,25 -73,0 -136,-8 -190,-25 -55,-17 -99,-39 -134,-68 -35,-28 -60,-62 -76,-100 -17,-39 -25,-80 -25,-123 0,-61 17,-113 51,-154 34,-41 84,-75 148,-103 v -4 c -63,-31 -107,-68 -132,-112 -25,-44 -37,-93 -37,-147 0,-40 9,-77 26,-112 17,-35 43,-66 78,-93 33,-26 74,-47 124,-63 51,-16 107,-23 170,-23 66,0 124,7 173,21 50,14 90,33 122,56 33,24 58,52 75,86 17,33 26,70 26,109 0,51 -15,97 -44,138 -30,42 -75,77 -136,104 v 5 c 71,29 124,67 158,114 33,47 50,103 50,169 z m -290,-498 c 0,-37 -12,-66 -36,-88 -24,-22 -57,-33 -98,-33 -39,0 -71,10 -95,30 -24,20 -36,44 -36,73 0,29 7,52 22,70 14,17 37,33 67,48 14,7 30,14 48,21 19,8 43,17 74,29 18,-25 32,-49 41,-72 9,-22 13,-49 13,-78 z m 23,510 c 0,-36 -7,-63 -22,-82 -15,-18 -47,-40 -97,-63 -14,-7 -34,-16 -61,-26 -26,-10 -49,-19 -70,-28 -19,19 -35,42 -50,70 -15,28 -23,58 -23,92 0,50 17,90 48,120 32,30 75,45 127,45 14,0 30,-2 48,-7 19,-4 35,-12 49,-21 15,-11 28,-24 37,-40 10,-15 14,-35 14,-60 z"
       id="path298"
       style="fill:none;stroke:#e31e24;stroke-width:30;stroke-miterlimit:4;stroke-dasharray:none"
       inkscape:connector-curvature="0" /><path
       class="fil0 str2"
       d="m 26775,9465 c 0,46 -9,89 -28,129 -19,40 -47,74 -84,103 -36,29 -81,52 -134,68 -53,17 -113,25 -181,25 -73,0 -136,-8 -190,-25 -55,-17 -99,-39 -134,-68 -35,-28 -60,-62 -76,-100 -17,-39 -25,-80 -25,-123 0,-61 17,-113 51,-154 34,-41 84,-75 148,-103 v -4 c -63,-31 -107,-68 -132,-112 -25,-44 -37,-93 -37,-147 0,-40 9,-77 26,-112 17,-35 43,-66 78,-93 33,-26 74,-47 124,-63 51,-16 107,-23 170,-23 66,0 124,7 173,21 50,14 90,33 122,56 33,24 58,52 75,86 17,33 26,70 26,109 0,51 -15,97 -44,138 -30,42 -75,77 -136,104 v 5 c 71,29 124,67 158,114 33,47 50,103 50,169 z m -290,-498 c 0,-37 -12,-66 -36,-88 -24,-22 -57,-33 -98,-33 -39,0 -71,10 -95,30 -24,20 -36,44 -36,73 0,29 7,52 22,70 14,17 37,33 67,48 14,7 30,14 48,21 19,8 43,17 74,29 18,-25 32,-49 41,-72 9,-22 13,-49 13,-78 z m 23,510 c 0,-36 -7,-63 -22,-82 -15,-18 -47,-40 -97,-63 -14,-7 -34,-16 -61,-26 -26,-10 -49,-19 -70,-28 -19,19 -35,42 -50,70 -15,28 -23,58 -23,92 0,50 17,90 48,120 32,30 75,45 127,45 14,0 30,-2 48,-7 19,-4 35,-12 49,-21 15,-11 28,-24 37,-40 10,-15 14,-35 14,-60 z"
       id="path300"
       style="fill:none;stroke:#e31e24;stroke-width:30;stroke-miterlimit:4;stroke-dasharray:none"
       inkscape:connector-curvature="0" /><path
       class="fil0 str2"
       d="m 4775,13665 c 0,46 -9,89 -28,129 -19,40 -47,74 -84,103 -36,29 -81,52 -134,68 -53,17 -113,25 -181,25 -73,0 -136,-8 -190,-25 -55,-17 -99,-39 -134,-68 -35,-28 -60,-62 -76,-100 -17,-39 -25,-80 -25,-123 0,-62 17,-113 51,-154 34,-41 84,-75 148,-103 v -4 c -63,-31 -107,-68 -132,-112 -25,-44 -37,-93 -37,-147 0,-40 9,-77 26,-112 17,-35 43,-66 78,-93 33,-26 74,-47 124,-63 51,-16 107,-23 170,-23 66,0 124,7 173,21 50,14 90,33 122,56 33,24 58,52 75,86 17,33 26,70 26,109 0,51 -15,97 -44,138 -30,42 -75,76 -136,104 v 5 c 71,29 124,67 158,114 33,47 50,103 50,169 z m -290,-498 c 0,-37 -12,-66 -36,-88 -24,-22 -57,-33 -98,-33 -39,0 -71,10 -95,30 -24,20 -36,44 -36,73 0,29 7,52 22,70 14,17 37,33 67,48 14,7 30,14 48,21 19,8 43,17 74,29 18,-25 32,-49 41,-72 9,-22 13,-49 13,-78 z m 23,510 c 0,-36 -7,-63 -22,-82 -15,-18 -47,-40 -97,-63 -14,-7 -34,-16 -61,-26 -26,-10 -49,-19 -70,-28 -19,19 -35,42 -50,70 -15,28 -23,58 -23,92 0,50 17,90 48,120 32,30 75,45 127,45 14,0 30,-2 48,-7 19,-4 35,-12 49,-21 15,-11 28,-24 37,-40 10,-15 14,-35 14,-60 z"
       id="path302"
       style="fill:none;stroke:#e31e24;stroke-width:30;stroke-miterlimit:4;stroke-dasharray:none"
       inkscape:connector-curvature="0" /><path
       class="fil0 str2"
       d="m 6975,13665 c 0,46 -9,89 -28,129 -19,40 -47,74 -84,103 -36,29 -81,52 -134,68 -53,17 -113,25 -181,25 -73,0 -136,-8 -190,-25 -55,-17 -99,-39 -134,-68 -35,-28 -60,-62 -76,-100 -17,-39 -25,-80 -25,-123 0,-62 17,-113 51,-154 34,-41 84,-75 148,-103 v -4 c -63,-31 -107,-68 -132,-112 -25,-44 -37,-93 -37,-147 0,-40 9,-77 26,-112 17,-35 43,-66 78,-93 33,-26 74,-47 124,-63 51,-16 107,-23 170,-23 66,0 124,7 173,21 50,14 90,33 122,56 33,24 58,52 75,86 17,33 26,70 26,109 0,51 -15,97 -44,138 -30,42 -75,76 -136,104 v 5 c 71,29 124,67 158,114 33,47 50,103 50,169 z m -290,-498 c 0,-37 -12,-66 -36,-88 -24,-22 -57,-33 -98,-33 -39,0 -71,10 -95,30 -24,20 -36,44 -36,73 0,29 7,52 22,70 14,17 37,33 67,48 14,7 30,14 48,21 19,8 43,17 74,29 18,-25 32,-49 41,-72 9,-22 13,-49 13,-78 z m 23,510 c 0,-36 -7,-63 -22,-82 -15,-18 -47,-40 -97,-63 -14,-7 -34,-16 -61,-26 -26,-10 -49,-19 -70,-28 -19,19 -35,42 -50,70 -15,28 -23,58 -23,92 0,50 17,90 48,120 32,30 75,45 127,45 14,0 30,-2 48,-7 19,-4 35,-12 49,-21 15,-11 28,-24 37,-40 10,-15 14,-35 14,-60 z"
       id="path304"
       style="fill:none;stroke:#e31e24;stroke-width:30;stroke-miterlimit:4;stroke-dasharray:none"
       inkscape:connector-curvature="0" /><path
       class="fil0 str2"
       d="m 9150,13366 c 0,91 -11,175 -32,251 -21,76 -54,142 -99,197 -46,55 -104,98 -172,127 -69,30 -153,45 -253,45 -34,0 -69,-3 -106,-7 -37,-4 -61,-8 -73,-11 v -212 h 21 c 13,7 33,14 57,21 25,8 60,12 103,12 36,0 69,-5 102,-15 33,-9 61,-24 85,-44 24,-21 45,-47 61,-79 17,-32 28,-72 33,-119 -38,24 -74,42 -107,55 -33,13 -74,19 -123,19 -37,0 -73,-5 -107,-14 -34,-10 -65,-26 -93,-46 -37,-30 -66,-67 -88,-112 -22,-46 -33,-105 -33,-177 0,-56 10,-108 29,-156 19,-47 46,-89 81,-124 35,-35 78,-62 128,-82 51,-20 107,-30 170,-30 62,0 118,9 167,27 49,17 90,44 125,81 41,41 72,93 93,158 21,65 31,143 31,235 z m -268,-40 c 0,-59 -5,-107 -15,-145 -10,-38 -24,-67 -41,-88 -13,-16 -27,-27 -43,-34 -15,-6 -32,-10 -51,-10 -16,0 -31,3 -46,10 -15,7 -30,18 -44,34 -12,14 -23,34 -32,61 -8,27 -13,57 -13,89 0,35 5,63 14,86 9,22 21,40 36,54 16,13 33,22 53,27 20,5 42,8 66,8 20,0 40,-3 62,-8 21,-6 39,-11 52,-17 0,-5 0,-13 1,-23 1,-10 1,-25 1,-44 z"
       id="path306"
       style="fill:none;stroke:#e31e24;stroke-width:30;stroke-miterlimit:4;stroke-dasharray:none"
       inkscape:connector-curvature="0" /><path
       class="fil0 str2"
       d="m 11350,13366 c 0,91 -11,175 -32,251 -21,76 -54,142 -99,197 -46,55 -104,98 -172,127 -69,30 -153,45 -253,45 -34,0 -69,-3 -106,-7 -37,-4 -61,-8 -73,-11 v -212 h 21 c 13,7 33,14 57,21 25,8 60,12 103,12 36,0 69,-5 102,-15 33,-9 61,-24 85,-44 24,-21 45,-47 61,-79 17,-32 28,-72 33,-119 -38,24 -74,42 -107,55 -33,13 -74,19 -123,19 -37,0 -73,-5 -107,-14 -34,-10 -65,-26 -93,-46 -37,-30 -66,-67 -88,-112 -22,-46 -33,-105 -33,-177 0,-56 10,-108 29,-156 19,-47 46,-89 81,-124 35,-35 78,-62 128,-82 51,-20 107,-30 170,-30 62,0 118,9 167,27 49,17 90,44 125,81 41,41 72,93 93,158 21,65 31,143 31,235 z m -268,-40 c 0,-59 -5,-107 -15,-145 -10,-38 -24,-67 -41,-88 -13,-16 -27,-27 -43,-34 -15,-6 -32,-10 -51,-10 -16,0 -31,3 -46,10 -15,7 -30,18 -44,34 -12,14 -23,34 -32,61 -8,27 -13,57 -13,89 0,35 5,63 14,86 9,22 21,40 36,54 16,13 33,22 53,27 20,5 42,8 66,8 20,0 40,-3 62,-8 21,-6 39,-11 52,-17 0,-5 0,-13 1,-23 1,-10 1,-25 1,-44 z"
       id="path308"
       style="fill:none;stroke:#e31e24;stroke-width:30;stroke-miterlimit:4;stroke-dasharray:none"
       inkscape:connector-curvature="0" /><path
       class="fil0 str2"
       d="m 13550,13366 c 0,91 -11,175 -32,251 -21,76 -54,142 -99,197 -46,55 -104,98 -172,127 -69,30 -153,45 -253,45 -34,0 -69,-3 -106,-7 -37,-4 -61,-8 -73,-11 v -212 h 21 c 13,7 33,14 57,21 25,8 60,12 103,12 36,0 69,-5 102,-15 33,-9 61,-24 85,-44 24,-21 45,-47 61,-79 17,-32 28,-72 33,-119 -38,24 -74,42 -107,55 -33,13 -74,19 -123,19 -37,0 -73,-5 -107,-14 -34,-10 -65,-26 -93,-46 -37,-30 -66,-67 -88,-112 -22,-46 -33,-105 -33,-177 0,-56 10,-108 29,-156 19,-47 46,-89 81,-124 35,-35 78,-62 128,-82 51,-20 107,-30 170,-30 62,0 118,9 167,27 49,17 90,44 125,81 41,41 72,93 93,158 21,65 31,143 31,235 z m -268,-40 c 0,-59 -5,-107 -15,-145 -10,-38 -24,-67 -41,-88 -13,-16 -27,-27 -43,-34 -15,-6 -32,-10 -51,-10 -16,0 -31,3 -46,10 -15,7 -30,18 -44,34 -12,14 -23,34 -32,61 -8,27 -13,57 -13,89 0,35 5,63 14,86 9,22 21,40 36,54 16,13 33,22 53,27 20,5 42,8 66,8 20,0 40,-3 62,-8 21,-6 39,-11 52,-17 0,-5 0,-13 1,-23 1,-10 1,-25 1,-44 z"
       id="path310"
       style="fill:none;stroke:#e31e24;stroke-width:30;stroke-miterlimit:4;stroke-dasharray:none"
       inkscape:connector-curvature="0" /><path
       class="fil0 str2"
       d="m 15750,13366 c 0,91 -11,175 -32,251 -21,76 -54,142 -99,197 -46,55 -104,98 -172,127 -69,30 -153,45 -253,45 -34,0 -69,-3 -106,-7 -37,-4 -61,-8 -73,-11 v -212 h 21 c 13,7 33,14 57,21 25,8 60,12 103,12 36,0 69,-5 102,-15 33,-9 61,-24 85,-44 24,-21 45,-47 61,-79 17,-32 28,-72 33,-119 -38,24 -74,42 -107,55 -33,13 -74,19 -123,19 -37,0 -73,-5 -107,-14 -34,-10 -65,-26 -93,-46 -37,-30 -66,-67 -88,-112 -22,-46 -33,-105 -33,-177 0,-56 10,-108 29,-156 19,-47 46,-89 81,-124 35,-35 78,-62 128,-82 51,-20 107,-30 170,-30 62,0 118,9 167,27 49,17 90,44 125,81 41,41 72,93 93,158 21,65 31,143 31,235 z m -268,-40 c 0,-59 -5,-107 -15,-145 -10,-38 -24,-67 -41,-88 -13,-16 -27,-27 -43,-34 -15,-6 -32,-10 -51,-10 -16,0 -31,3 -46,10 -15,7 -30,18 -44,34 -12,14 -23,34 -32,61 -8,27 -13,57 -13,89 0,35 5,63 14,86 9,22 21,40 36,54 16,13 33,22 53,27 20,5 42,8 66,8 20,0 40,-3 62,-8 21,-6 39,-11 52,-17 0,-5 0,-13 1,-23 1,-10 1,-25 1,-44 z"
       id="path312"
       style="fill:none;stroke:#e31e24;stroke-width:30;stroke-miterlimit:4;stroke-dasharray:none"
       inkscape:connector-curvature="0" /><path
       class="fil0 str2"
       d="m 17950,13366 c 0,91 -11,175 -32,251 -21,76 -54,142 -99,197 -46,55 -104,98 -172,127 -69,30 -153,45 -253,45 -34,0 -69,-3 -106,-7 -37,-4 -61,-8 -73,-11 v -212 h 21 c 13,7 33,14 57,21 25,8 60,12 103,12 36,0 69,-5 102,-15 33,-9 61,-24 85,-44 24,-21 45,-47 61,-79 17,-32 28,-72 33,-119 -38,24 -74,42 -107,55 -33,13 -74,19 -123,19 -37,0 -73,-5 -107,-14 -34,-10 -65,-26 -93,-46 -37,-30 -66,-67 -88,-112 -22,-46 -33,-105 -33,-177 0,-56 10,-108 29,-156 19,-47 46,-89 81,-124 35,-35 78,-62 128,-82 51,-20 107,-30 170,-30 62,0 118,9 167,27 49,17 90,44 125,81 41,41 72,93 93,158 21,65 31,143 31,235 z m -268,-40 c 0,-59 -5,-107 -15,-145 -10,-38 -24,-67 -41,-88 -13,-16 -27,-27 -43,-34 -15,-6 -32,-10 -51,-10 -16,0 -31,3 -46,10 -15,7 -30,18 -44,34 -12,14 -23,34 -32,61 -8,27 -13,57 -13,89 0,35 5,63 14,86 9,22 21,40 36,54 16,13 33,22 53,27 20,5 42,8 66,8 20,0 40,-3 62,-8 21,-6 39,-11 52,-17 0,-5 0,-13 1,-23 1,-10 1,-25 1,-44 z"
       id="path314"
       style="fill:none;stroke:#e31e24;stroke-width:30;stroke-miterlimit:4;stroke-dasharray:none"
       inkscape:connector-curvature="0" /><path
       class="fil0 str2"
       d="m 20150,13366 c 0,91 -11,175 -32,251 -21,76 -54,142 -99,197 -46,55 -104,98 -172,127 -69,30 -153,45 -253,45 -34,0 -69,-3 -106,-7 -37,-4 -61,-8 -73,-11 v -212 h 21 c 13,7 33,14 57,21 25,8 60,12 103,12 36,0 69,-5 102,-15 33,-9 61,-24 85,-44 24,-21 45,-47 61,-79 17,-32 28,-72 33,-119 -38,24 -74,42 -107,55 -33,13 -74,19 -123,19 -37,0 -73,-5 -107,-14 -34,-10 -65,-26 -93,-46 -37,-30 -66,-67 -88,-112 -22,-46 -33,-105 -33,-177 0,-56 10,-108 29,-156 19,-47 46,-89 81,-124 35,-35 78,-62 128,-82 51,-20 107,-30 170,-30 62,0 118,9 167,27 49,17 90,44 125,81 41,41 72,93 93,158 21,65 31,143 31,235 z m -268,-40 c 0,-59 -5,-107 -15,-145 -10,-38 -24,-67 -41,-88 -13,-16 -27,-27 -43,-34 -15,-6 -32,-10 -51,-10 -16,0 -31,3 -46,10 -15,7 -30,18 -44,34 -12,14 -23,34 -32,61 -8,27 -13,57 -13,89 0,35 5,63 14,86 9,22 21,40 36,54 16,13 33,22 53,27 20,5 42,8 66,8 20,0 40,-3 62,-8 21,-6 39,-11 52,-17 0,-5 0,-13 1,-23 1,-10 1,-25 1,-44 z"
       id="path316"
       style="fill:none;stroke:#e31e24;stroke-width:30;stroke-miterlimit:4;stroke-dasharray:none"
       inkscape:connector-curvature="0" /><path
       class="fil0 str2"
       d="m 22350,13366 c 0,91 -11,175 -32,251 -21,76 -54,142 -99,197 -46,55 -104,98 -172,127 -69,30 -153,45 -253,45 -34,0 -69,-3 -106,-7 -37,-4 -61,-8 -73,-11 v -212 h 21 c 13,7 33,14 57,21 25,8 60,12 103,12 36,0 69,-5 102,-15 33,-9 61,-24 85,-44 24,-21 45,-47 61,-79 17,-32 28,-72 33,-119 -38,24 -74,42 -107,55 -33,13 -74,19 -123,19 -37,0 -73,-5 -107,-14 -34,-10 -65,-26 -93,-46 -37,-30 -66,-67 -88,-112 -22,-46 -33,-105 -33,-177 0,-56 10,-108 29,-156 19,-47 46,-89 81,-124 35,-35 78,-62 128,-82 51,-20 107,-30 170,-30 62,0 118,9 167,27 49,17 90,44 125,81 41,41 72,93 93,158 21,65 31,143 31,235 z m -268,-40 c 0,-59 -5,-107 -15,-145 -10,-38 -24,-67 -41,-88 -13,-16 -27,-27 -43,-34 -15,-6 -32,-10 -51,-10 -16,0 -31,3 -46,10 -15,7 -30,18 -44,34 -12,14 -23,34 -32,61 -8,27 -13,57 -13,89 0,35 5,63 14,86 9,22 21,40 36,54 16,13 33,22 53,27 20,5 42,8 66,8 20,0 40,-3 62,-8 21,-6 39,-11 52,-17 0,-5 0,-13 1,-23 1,-10 1,-25 1,-44 z"
       id="path318"
       style="fill:none;stroke:#e31e24;stroke-width:30;stroke-miterlimit:4;stroke-dasharray:none"
       inkscape:connector-curvature="0" /><path
       class="fil0 str2"
       d="m 24550,13366 c 0,91 -11,175 -32,251 -21,76 -54,142 -99,197 -46,55 -104,98 -172,127 -69,30 -153,45 -253,45 -34,0 -69,-3 -106,-7 -37,-4 -61,-8 -73,-11 v -212 h 21 c 13,7 33,14 57,21 25,8 60,12 103,12 36,0 69,-5 102,-15 33,-9 61,-24 85,-44 24,-21 45,-47 61,-79 17,-32 28,-72 33,-119 -38,24 -74,42 -107,55 -33,13 -74,19 -123,19 -37,0 -73,-5 -107,-14 -34,-10 -65,-26 -93,-46 -37,-30 -66,-67 -88,-112 -22,-46 -33,-105 -33,-177 0,-56 10,-108 29,-156 19,-47 46,-89 81,-124 35,-35 78,-62 128,-82 51,-20 107,-30 170,-30 62,0 118,9 167,27 49,17 90,44 125,81 41,41 72,93 93,158 21,65 31,143 31,235 z m -268,-40 c 0,-59 -5,-107 -15,-145 -10,-38 -24,-67 -41,-88 -13,-16 -27,-27 -43,-34 -15,-6 -32,-10 -51,-10 -16,0 -31,3 -46,10 -15,7 -30,18 -44,34 -12,14 -23,34 -32,61 -8,27 -13,57 -13,89 0,35 5,63 14,86 9,22 21,40 36,54 16,13 33,22 53,27 20,5 42,8 66,8 20,0 40,-3 62,-8 21,-6 39,-11 52,-17 0,-5 0,-13 1,-23 1,-10 1,-25 1,-44 z"
       id="path320"
       style="fill:none;stroke:#e31e24;stroke-width:30;stroke-miterlimit:4;stroke-dasharray:none"
       inkscape:connector-curvature="0" /><path
       class="fil0 str2"
       d="m 26291,13965 h -711 v -188 h 227 v -569 h -227 v -177 c 34,0 66,-2 99,-6 33,-4 59,-11 79,-21 23,-12 41,-27 54,-47 12,-19 20,-43 22,-72 h 235 v 892 h 222 z m 810,-539 c 0,93 -7,174 -23,244 -14,70 -38,128 -71,175 -33,47 -76,82 -128,106 -53,24 -117,36 -194,36 -76,0 -140,-12 -192,-36 -53,-24 -96,-59 -129,-107 -33,-48 -57,-106 -72,-175 -15,-69 -22,-150 -22,-243 0,-95 7,-177 22,-244 14,-68 39,-126 73,-175 34,-47 78,-83 131,-106 53,-24 116,-36 189,-36 78,0 143,13 195,37 52,24 94,61 128,109 32,47 56,106 71,175 15,69 22,149 22,240 z m -271,0 c 0,-134 -11,-227 -33,-281 -22,-54 -59,-81 -112,-81 -52,0 -89,27 -111,81 -22,54 -33,148 -33,282 0,131 11,225 33,279 22,55 59,83 111,83 52,0 89,-28 111,-83 23,-54 34,-148 34,-280 z"
       id="path322"
       style="fill:none;stroke:#e31e24;stroke-width:30;stroke-miterlimit:4;stroke-dasharray:none"
       inkscape:connector-curvature="0" /><g
       id="_789402784"
       style="stroke-width:30;stroke-miterlimit:4;stroke-dasharray:none"><path
         class="fil0 str2"
         d="m 4432,17092 c 87,13 168,47 236,97 l 83,-83 118,117 -83,83 c 66,89 105,200 105,319 0,298 -242,540 -540,540 -298,0 -540,-242 -540,-540 0,-118 39,-228 103,-317 l -85,-85 118,-117 85,84 c 67,-49 147,-84 234,-97 v -119 h 166 z"
         id="path324"
         style="fill:none;stroke:#e31e24;stroke-width:30;stroke-miterlimit:4;stroke-dasharray:none"
         inkscape:connector-curvature="0" /><path
         class="fil0 str2"
         d="m 3957,17674 c -19,-172 55,-321 202,-389 l 63,111 c -191,57 -217,161 -265,278 z"
         id="path326"
         style="fill:none;stroke:#e31e24;stroke-width:30;stroke-miterlimit:4;stroke-dasharray:none"
         inkscape:connector-curvature="0" /></g><g
       id="_956364816"
       style="stroke-width:30;stroke-miterlimit:4;stroke-dasharray:none"><path
         class="fil0 str2"
         d="m 6630,17092 c 87,13 168,47 236,97 l 83,-83 117,117 -82,83 c 66,89 105,200 105,319 0,298 -242,540 -540,540 -298,0 -540,-242 -540,-540 0,-118 39,-228 103,-317 l -85,-85 118,-117 85,84 c 67,-49 147,-84 234,-97 v -119 h 166 z"
         id="path329"
         style="fill:none;stroke:#e31e24;stroke-width:30;stroke-miterlimit:4;stroke-dasharray:none"
         inkscape:connector-curvature="0" /><path
         class="fil0 str2"
         d="m 6155,17674 c -19,-172 55,-321 202,-389 l 63,111 c -191,57 -217,161 -265,278 z"
         id="path331"
         style="fill:none;stroke:#e31e24;stroke-width:30;stroke-miterlimit:4;stroke-dasharray:none"
         inkscape:connector-curvature="0" /></g><g
       id="_805203936"
       style="stroke-width:30;stroke-miterlimit:4;stroke-dasharray:none"><path
         class="fil0 str2"
         d="m 8830,17092 c 87,13 168,47 236,97 l 83,-83 117,117 -82,83 c 66,89 105,200 105,319 0,298 -242,540 -540,540 -298,0 -540,-242 -540,-540 0,-118 39,-228 103,-317 l -85,-85 118,-117 85,84 c 67,-49 147,-84 234,-97 v -119 h 166 z"
         id="path334"
         style="fill:none;stroke:#e31e24;stroke-width:30;stroke-miterlimit:4;stroke-dasharray:none"
         inkscape:connector-curvature="0" /><path
         class="fil0 str2"
         d="m 8355,17674 c -19,-172 55,-321 202,-389 l 63,111 c -191,57 -217,161 -265,278 z"
         id="path336"
         style="fill:none;stroke:#e31e24;stroke-width:30;stroke-miterlimit:4;stroke-dasharray:none"
         inkscape:connector-curvature="0" /></g><g
       id="_918343216"
       style="stroke-width:30;stroke-miterlimit:4;stroke-dasharray:none"><path
         class="fil0 str2"
         d="m 11030,17092 c 87,13 168,47 236,97 l 83,-83 117,117 -82,83 c 66,89 105,200 105,319 0,298 -242,540 -540,540 -298,0 -540,-242 -540,-540 0,-118 39,-228 103,-317 l -85,-85 118,-117 85,84 c 67,-49 147,-84 234,-97 v -119 h 166 z"
         id="path339"
         style="fill:none;stroke:#e31e24;stroke-width:30;stroke-miterlimit:4;stroke-dasharray:none"
         inkscape:connector-curvature="0" /><path
         class="fil0 str2"
         d="m 10555,17674 c -19,-172 55,-321 202,-389 l 63,111 c -191,57 -217,161 -265,278 z"
         id="path341"
         style="fill:none;stroke:#e31e24;stroke-width:30;stroke-miterlimit:4;stroke-dasharray:none"
         inkscape:connector-curvature="0" /></g><g
       id="_952969440"
       style="stroke-width:30;stroke-miterlimit:4;stroke-dasharray:none"><path
         class="fil0 str2"
         d="m 13230,17092 c 87,13 168,47 236,97 l 83,-83 117,117 -82,83 c 66,89 105,200 105,319 0,298 -242,540 -540,540 -298,0 -540,-242 -540,-540 0,-118 39,-228 103,-317 l -85,-85 118,-117 85,84 c 67,-49 147,-84 234,-97 v -119 h 166 z"
         id="path344"
         style="fill:none;stroke:#e31e24;stroke-width:30;stroke-miterlimit:4;stroke-dasharray:none"
         inkscape:connector-curvature="0" /><path
         class="fil0 str2"
         d="m 12755,17674 c -19,-172 55,-321 202,-389 l 63,111 c -191,57 -217,161 -265,278 z"
         id="path346"
         style="fill:none;stroke:#e31e24;stroke-width:30;stroke-miterlimit:4;stroke-dasharray:none"
         inkscape:connector-curvature="0" /></g><g
       id="_804635776"
       style="stroke-width:30;stroke-miterlimit:4;stroke-dasharray:none"><path
         class="fil0 str2"
         d="m 15430,17092 c 87,13 168,47 236,97 l 83,-83 117,117 -82,83 c 66,89 105,200 105,319 0,298 -242,540 -540,540 -298,0 -540,-242 -540,-540 0,-118 39,-228 103,-317 l -85,-85 118,-117 85,84 c 67,-49 147,-84 234,-97 v -119 h 166 z"
         id="path349"
         style="fill:none;stroke:#e31e24;stroke-width:30;stroke-miterlimit:4;stroke-dasharray:none"
         inkscape:connector-curvature="0" /><path
         class="fil0 str2"
         d="m 14955,17674 c -19,-172 55,-321 202,-389 l 63,111 c -191,57 -217,161 -265,278 z"
         id="path351"
         style="fill:none;stroke:#e31e24;stroke-width:30;stroke-miterlimit:4;stroke-dasharray:none"
         inkscape:connector-curvature="0" /></g><path
       class="fil0 str2"
       d="m 17099,16895 h 149 c 294,159 465,-49 777,0 v 547 c -281,-71 -443,119 -777,0 v 723 h -149 z"
       id="path354"
       style="fill:none;stroke:#e31e24;stroke-width:30;stroke-miterlimit:4;stroke-dasharray:none"
       inkscape:connector-curvature="0" /><rect
       class="fil0 str1"
       x="2970"
       y="3690"
       width="24800"
       height="17300"
       id="rect356"
       style="fill:none;stroke:#2b2a29;stroke-width:30;stroke-miterlimit:4;stroke-dasharray:none" /></g></svg>